<?xml version="1.0" standalone="no"?>
<!DOCTYPE svg PUBLIC "-//W3C//DTD SVG 1.1//EN" "http://www.w3.org/Graphics/SVG/1.1/DTD/svg11.dtd" >
<svg>
<metadata>
Created by FontForge 20110222 at Sun Jun 19 21:47:15 2011
 By www-data
"Senorella and the Haurache" is a TM and (c) by Warner Bros. Inc. before 1961-64 (c) 2009, 2010, 2011 Nippon Central FontMasters, Inc. All Rights Reserved.
</metadata>
<defs>
<font id="HauracherellNC" horiz-adv-x="1010" >
  <font-face 
    font-family="Hauracherell NC"
    font-weight="400"
    font-stretch="normal"
    units-per-em="2048"
    panose-1="2 11 6 3 6 2 1 2 1 1"
    ascent="1638"
    descent="-410"
    x-height="997"
    cap-height="1422"
    bbox="0 -521 2607 1992"
    underline-thickness="150"
    underline-position="-142"
    unicode-range="U+0020-2122"
  />
    <missing-glyph />
    <glyph glyph-name="space" unicode=" " horiz-adv-x="336" 
 />
    <glyph glyph-name="space" unicode="&#xa0;" horiz-adv-x="336" 
 />
    <glyph glyph-name="exclam" unicode="!" horiz-adv-x="387" 
d="M12 381q8 114 8 303q0 297 -20 779l232 -11q-10 -491 -10 -1063zM37 -45q-35 32 -35 79t35 79t83 32q47 0 82 -32t35 -79t-35 -79t-82 -32q-48 0 -83 32z" />
    <glyph glyph-name="quotedbl" unicode="&#x22;" horiz-adv-x="674" 
d="M4 1197l-4 236l219 9q5 -104 5 -178q0 -73 -5 -117q-9 -87 -123 -213l-64 59q80 90 80 201zM304 1197l-4 236l219 9q5 -104 5 -178q0 -73 -5 -117q-9 -87 -123 -213l-64 59q80 90 80 201z" />
    <glyph glyph-name="numbersign" unicode="#" horiz-adv-x="1247" 
d="M200 350h-200l28 200h200l41 300h-200l28 200h200l48 350h200l-48 -350h200l48 350h200l-48 -350h200l-28 -200h-200l-41 -300h200l-28 -200h-200l-48 -350h-200l48 350h-200l-48 -350h-200zM469 850l-41 -300h200l41 300h-200z" />
    <glyph glyph-name="dollar" unicode="$" horiz-adv-x="1001" 
d="M95 131q-95 101 -95 346v20l227 67q4 -227 74 -271q56 -37 123 -37q16 0 33 3q86 10 116 61q17 30 17 83q0 34 -7 77q-19 109 -135 159.5t-223 103.5t-151 160q-30 71 -30 163q0 47 8 99q22 155 133 232q105 72 155 72h5l-4 253h185l-4 -253q92 -8 187 -113.5t108 -378.5
l-224 -55q-4 240 -75 286q-47 30 -91 30q-25 0 -48 -9q-68 -25 -93 -96q-10 -29 -10 -58q0 -44 23 -90q38 -76 267 -162t263 -221q22 -87 22 -164q0 -43 -7 -82q-19 -112 -84.5 -204.5t-233.5 -151.5l-4 -243h-168v239q-160 29 -259 135z" />
    <glyph glyph-name="percent" unicode="%" horiz-adv-x="1917" 
d="M542 6q284 774 478 1439h215q-325 -851 -487 -1451zM1765 484q2 -33 2 -62q0 -262 -119 -344q-111 -77 -278 -77q-31 0 -63 3q-210 17 -270 203q-31 92 -31 190q0 97 31 200q60 203 382 203h5q326 -2 341 -316zM1398 604h-3q-139 0 -163 -100q-12 -51 -12 -102t12 -101
q23 -102 116 -112q18 -2 35 -2q68 0 112 32q50 36 50 186v26q-5 172 -147 173zM756 1143v-49q0 -274 -124 -363q-109 -79 -262 -79q-37 0 -76 5q-203 23 -263 209q-31 92 -31 190q0 97 31 200q60 203 382 203h5q326 -2 338 -316zM392 1263h-3q-139 0 -163 -100
q-12 -51 -12 -102t12 -101q23 -102 116 -112q18 -2 35 -2q68 0 112 32q50 36 50 186v26q-5 172 -147 173z" />
    <glyph glyph-name="ampersand" unicode="&#x26;" horiz-adv-x="1272" 
d="M156 1134q0 32 6 62q28 162 130 247q79 67 184 67q29 0 59 -5q142 -23 212.5 -98t71.5 -264v-1q0 -188 -250 -392l150 -193l226 302l168 -128l-250 -351l259 -290l-175 -135l-212 236q-129 -155 -259 -188q-50 -13 -98 -13q-77 0 -150 33q-118 53 -182 155
q-46 71 -46 188q0 48 8 105q27 192 250 340q-102 182 -102 323zM383 620q-125 -111 -141 -199q-5 -24 -5 -45q0 -57 32 -95q42 -50 134 -50h11q101 3 173 136zM631 1167q0 29 -15 56q-40 70 -103 70q-45 0 -100 -34q-62 -39 -62 -115q0 -91 89 -236q191 152 191 259z" />
    <glyph glyph-name="quotesingle" unicode="'" horiz-adv-x="374" 
d="M4 1197l-4 236l219 9q5 -104 5 -178q0 -73 -5 -117q-9 -87 -123 -213l-64 59q80 90 80 201z" />
    <glyph glyph-name="parenleft" unicode="(" horiz-adv-x="692" 
d="M533 -226q-507 0 -527 655l-6 432v20q0 733 482 733q16 0 34 -1v-202h-6q-265 0 -278 -543l13 -432q13 -462 293 -462h4v-200h-9z" />
    <glyph glyph-name="parenright" unicode=")" horiz-adv-x="692" 
d="M0 -26h4q280 0 293 462l13 432q-13 543 -278 543h-6v202q18 1 34 1q482 0 482 -733v-20l-6 -432q-20 -655 -527 -655h-9v200z" />
    <glyph glyph-name="asterisk" unicode="*" horiz-adv-x="879" 
d="M241 997l-241 10l6 180l259 -45l-23 297h198l-19 -303l269 58l39 -194l-280 -13l203 -234l-168 -97l-142 241l-123 -241l-162 52z" />
    <glyph glyph-name="plus" unicode="+" horiz-adv-x="962" 
d="M5 616l-5 161l306 7l-6 306l224 -6l-9 -288h285l12 -199h-300l-6 -287l-200 -6v293z" />
    <glyph glyph-name="comma" unicode="," horiz-adv-x="374" 
d="M4 9l-4 236l219 9q5 -104 5 -178q0 -73 -5 -117q-9 -87 -123 -213l-64 59q80 90 80 201z" />
    <glyph glyph-name="hyphen" unicode="-" horiz-adv-x="662" 
d="M5 606l-5 181l500 9l12 -199z" />
    <glyph glyph-name="hyphen" unicode="&#xad;" horiz-adv-x="662" 
d="M5 606l-5 181l500 9l12 -199z" />
    <glyph glyph-name="period" unicode="." horiz-adv-x="369" 
d="M4 9l-4 236l219 9l-7 -248z" />
    <glyph glyph-name="slash" unicode="/" horiz-adv-x="689" 
d="M150 -229l-150 50l395 1804l144 -50z" />
    <glyph glyph-name="zero" unicode="0" 
d="M859 784q1 -52 1 -100q0 -539 -133 -647q-117 -94 -294 -94q-44 0 -92 6q-241 29 -308 342q-33 156 -33 336q0 179 33 383q67 404 436 404h4q373 -2 386 -630zM456 1154h-2q-182 0 -214 -273q-17 -137 -17 -258t17 -227q32 -211 150 -231q23 -5 45 -5q87 0 145 66
q66 75 66 441v63q-6 422 -190 424z" />
    <glyph glyph-name="one" unicode="1" horiz-adv-x="591" 
d="M231 -65q-3 537 -16 1135q-97 -115 -192 -144l-23 224q138 81 202 232l239 24q-12 -591 -12 -1086q0 -204 2 -391z" />
    <glyph glyph-name="two" unicode="2" horiz-adv-x="934" 
d="M38 -12l-23 283q436 429 483 569q29 85 29 163q0 49 -11 95q-30 119 -111 125h-15q-70 0 -113 -48q-37 -43 -37 -183q0 -36 2 -78l-242 29q0 231 70.5 352.5t205.5 153.5q71 17 132 17q56 0 105 -14q101 -29 158.5 -115.5t79.5 -221.5q11 -70 11 -137q0 -63 -10 -125
q-21 -126 -145.5 -280t-367.5 -385q87 -1 164 -1q233 0 381 13v-253z" />
    <glyph glyph-name="three" unicode="3" horiz-adv-x="988" 
d="M120.5 1348q100.5 88 234.5 103q34 3 66 3q96 0 179 -32q111 -44 157 -174q33 -93 33 -189q0 -38 -5 -76q-18 -135 -189 -207q151 -45 196.5 -147t45.5 -192q0 -91 -26 -178.5t-137.5 -168t-265.5 -86.5q-9 -1 -17 -1q-145 0 -268 107q-124 106 -124 346v26l228 18
q19 -225 160 -235q17 -1 32 -1q115 0 158 66q25 38 25 91q0 49 -22 111q-46 128 -289 141l-19 187q71 7 155 37t108 112q8 28 8 55q0 52 -29 101q-32 52 -102 52q-29 0 -64 -9q-106 -27 -106 -171q0 -21 2 -45l-233 8q8 260 108.5 348z" />
    <glyph glyph-name="four" unicode="4" horiz-adv-x="1067" 
d="M526 -45l-7 409l-499 -3l-20 233q284 393 523 806l219 -6v-794h175v-245l-188 3v-416zM529 611v454q-122 -200 -283 -452z" />
    <glyph glyph-name="five" unicode="5" 
d="M0 446l225 44q7 -148 78 -203q52 -41 108 -41q20 0 41 6q77 19 119 71q39 47 39 148v18q-4 114 -110 189q-42 29 -87 29q-70 0 -149 -71l-234 19l33 788l705 22l6 -286l-488 -2l-17 -341q103 70 206 70q41 0 83 -11q144 -39 210.5 -134t84.5 -192q7 -38 7 -80
q0 -69 -18 -150q-29 -133 -90.5 -207t-183.5 -112q-83 -26 -169 -26q-43 0 -86 6q-133 19 -220 129t-93 317z" />
    <glyph glyph-name="six" unicode="6" horiz-adv-x="983" 
d="M459 811h16q142 0 235 -76q98 -80 116 -211q7 -58 7 -109q0 -63 -12 -114q-22 -93 -75.5 -179.5t-163.5 -119.5q-83 -25 -160 -25q-26 0 -51 3q-100 11 -195.5 75.5t-133 224t-41.5 401.5q-1 27 -1 53q0 206 32 346q35 157 121.5 254.5t182.5 122.5q52 13 106 13
q44 0 89 -9q99 -20 188 -122t102 -364l-226 -57q-5 119 -22.5 192.5t-70.5 95.5q-30 12 -63 12q-26 0 -53 -7q-62 -18 -99.5 -91.5t-50.5 -393.5q70 80 223 85zM278.5 307q25.5 -67 103.5 -96q33 -12 62 -12q39 0 70 22q55 38 71 95.5t16 141.5t-93 142q-31 19 -70 19
q-79 0 -189 -78q4 -167 29.5 -234z" />
    <glyph glyph-name="seven" unicode="7" horiz-adv-x="948" 
d="M792 1429l6 -232q-325 -548 -349 -1239l-210 6q46 756 312 1213l-540 -12l-11 264h792z" />
    <glyph glyph-name="eight" unicode="8" horiz-adv-x="966" 
d="M394 667q-124 -49 -152 -110t-29 -109v-3q0 -47 34 -101q34 -57 77 -74q29 -13 68 -13q17 0 35 3q61 7 97.5 34t59.5 74q13 27 13 63q0 25 -7 55q-16 70 -50.5 105.5t-145.5 75.5zM469.5 920q39.5 28 54.5 63q12 28 12 67q0 10 -1 22q-4 53 -24.5 86.5t-51.5 47.5
q-25 11 -62 11q-8 0 -17 -1q-48 -3 -84.5 -18t-53.5 -54.5t-17 -88.5q0 -50 22.5 -94.5t125.5 -79.5q57 11 96.5 39zM589 774q149 -79 187.5 -172t39.5 -183v-5q0 -87 -32 -167q-33 -82 -95 -135.5t-155 -75.5q-72 -18 -144 -18q-21 0 -42 2q-93 6 -132.5 23t-80.5 51
t-72 83.5t-43.5 99.5t-18.5 131q-1 12 -1 24q0 72 32 156q37 99 139 165q-107 60 -134.5 127.5t-32.5 148.5q-1 12 -1 24q0 70 27 147q32 90 94 146.5t177 75.5q47 8 93 8q64 0 123 -15q102 -27 160.5 -89t78.5 -148q11 -52 11 -103q0 -36 -5 -71q-14 -88 -58.5 -143
t-114.5 -87z" />
    <glyph glyph-name="nine" unicode="9" horiz-adv-x="983" 
d="M374 587q-8 -1 -16 -1q-142 0 -235 76q-98 80 -115 236q-8 69 -8 126q0 71 12 123q22 92 75.5 178.5t164.5 119.5q82 25 159 25q26 0 51 -3q100 -11 195.5 -75.5t133 -224t42.5 -400.5v-54q0 -206 -31 -345q-36 -158 -122.5 -255.5t-181.5 -121.5q-53 -14 -107 -14
q-44 0 -88 9q-100 20 -189 122t-102 314l226 57q5 -119 22.5 -167.5t71.5 -70.5q29 -12 62 -12q26 0 53 8q62 17 99.5 65.5t50.5 368.5q-70 -80 -223 -84zM554.5 1140q-25.5 67 -102.5 96q-34 12 -63 12q-39 0 -70 -21q-55 -39 -71 -96.5t-16 -166.5t94 -167q30 -19 69 -19
q79 0 189 78q-4 217 -29.5 284z" />
    <glyph glyph-name="colon" unicode=":" horiz-adv-x="369" 
d="M4 9l-4 236l219 9l-7 -248zM4 774l-4 236l219 9l-7 -248z" />
    <glyph glyph-name="semicolon" unicode=";" horiz-adv-x="374" 
d="M4 9l-4 236l219 9q5 -104 5 -178q0 -73 -5 -117q-9 -87 -123 -213l-64 59q80 90 80 201zM4 774l-4 236l219 9l-7 -248z" />
    <glyph glyph-name="less" unicode="&#x3c;" horiz-adv-x="750" 
d="M436 1200l152 -171l-356 -418l368 -386l-148 -164l-452 544z" />
    <glyph glyph-name="equal" unicode="=" horiz-adv-x="1000" 
d="M21 765l-21 191l850 6l-11 -202zM33 406l-5 181l800 9l12 -199z" />
    <glyph glyph-name="greater" unicode="&#x3e;" horiz-adv-x="750" 
d="M600 605l-452 -544l-148 164l368 386l-356 418l152 171z" />
    <glyph glyph-name="question" unicode="?" horiz-adv-x="977" 
d="M198 1406q107 43 213 43q58 0 116 -13q162 -38 225 -129.5t74 -228.5q1 -19 1 -37q0 -119 -61 -234q-71 -134 -261 -170l-5 -234l-185 9l-8 368q155 14 212 69q55 52 55 176v11q-3 132 -66 177q-47 33 -113 33q-23 0 -47 -3q-98 -16 -122 -241l-226 67q31 269 198 337z
M493.5 216q36.5 -38 36.5 -91t-36.5 -91.5t-91.5 -38.5q-54 0 -91 38.5t-37 91.5t37 91t91 38q55 0 91.5 -38z" />
    <glyph glyph-name="at" unicode="@" horiz-adv-x="1506" 
d="M754 805.5q-43 53.5 -100 53.5t-96.5 -56.5t-46.5 -158.5q-4 -41 -4 -87q0 -67 7 -143q11 -129 93 -189q40 -30 77 -30q39 0 76 32q71 62 85 177l-5 264q-43 84 -86 137.5zM832 1055l191 17q-2 -174 -2 -312q0 -538 28 -538q35 0 78 117.5t45 339.5v10q0 215 -88 370
q-90 157 -318 171q-32 1 -62 1q-184 0 -295 -70q-129 -83 -178 -312q-41 -186 -41 -359q0 -40 3 -79q11 -209 89.5 -339t223.5 -190q121 -51 278 -51q29 0 61 2q194 11 384 123l73 -180q-198 -96 -398 -120q-67 -8 -133 -8q-133 0 -265 33q-198 48 -315 185.5t-159 352.5
q-32 162 -32 340q0 58 4 117q13 242 134 459.5t378 273.5q90 19 178 19q162 0 314 -66q235 -103 305 -361q43 -161 43 -332q0 -104 -16 -211q-42 -285 -143 -364q-97 -76 -204 -76q-6 0 -12 1q-115 4 -141 143q-103 -171 -219 -171q-4 0 -6 1q-120 4 -190.5 95t-103.5 239
q-28 123 -28 238q0 23 2 46q6 136 48 246t111 170q58 51 138 51q15 0 31 -2q99 -11 232 -157z" />
    <glyph glyph-name="A" unicode="A" horiz-adv-x="1080" 
d="M606 1450q138 -715 324 -1417l-273 -21l-84 383l-283 -16l-52 -354l-238 -13q126 773 217 1426zM568 602l-114 654l-62 -15l-98 -639h274z" />
    <glyph glyph-name="B" unicode="B" horiz-adv-x="1004" 
d="M217 839h37q205 0 262 63q49 55 49 131q0 19 -3 40q-16 102 -98 147q-59 32 -162 32q-41 0 -89 -5zM9 14q0 980 -9 1483q115 7 210 7q275 0 380 -56q141 -76 195 -187q40 -85 40 -182q0 -30 -3 -61q-17 -133 -173 -285q191 -88 203 -260q2 -24 2 -47q0 -141 -64 -236
q-75 -110 -274 -159q-120 -30 -279 -30q-105 0 -228 13zM532 292q79 38 79 144v17q-7 119 -118 155q-66 21 -140 21q-52 0 -109 -10v-377q203 8 288 50z" />
    <glyph glyph-name="C" unicode="C" horiz-adv-x="1017" 
d="M843 1020l-227 -65q-21 192 -142 223q-23 6 -44 6q-88 0 -135 -108q-58 -133 -69 -364q-3 -55 -3 -106q0 -160 28 -271q36 -147 202 -147q165 0 166 301l248 -57q-27 -291 -170 -412q-111 -95 -275 -95q-48 0 -100 9q-232 35 -292 353q-30 156 -30 332q0 183 32 388
q60 391 402 391h20q360 -12 389 -378z" />
    <glyph glyph-name="D" unicode="D" 
d="M18 -34q-8 768 -18 1493q147 10 255 10q135 0 209 -15q133 -28 230.5 -143.5t138.5 -319.5q27 -138 27 -292q0 -74 -6 -152q-20 -240 -199 -425q-155 -160 -518 -160q-57 0 -119 4zM518.5 342q92.5 122 103.5 294q3 45 3 88q0 119 -22 217q-31 134 -147 203
q-96 56 -187 56q-20 0 -40 -3q5 -487 10 -984q187 7 279.5 129z" />
    <glyph glyph-name="E" unicode="E" horiz-adv-x="852" 
d="M664 1519l10 -275q-43 1 -103 1q-135 0 -354 -6l4 -371q188 0 364 5l-4 -231q-63 4 -126 4q-94 0 -188 -9v-335h431l4 -265q-236 5 -688 5q3 171 3 368q0 472 -17 1090z" />
    <glyph glyph-name="F" unicode="F" horiz-adv-x="824" 
d="M664 1469l10 -275q-43 1 -103 1q-135 0 -354 -6l4 -431q188 0 394 5l-4 -231q-75 4 -145 4q-105 0 -199 -9v-545l-253 10q3 171 3 368q0 472 -17 1090z" />
    <glyph glyph-name="G" unicode="G" horiz-adv-x="1143" 
d="M889 1051l-226 -82q-33 198 -162 225q-23 4 -44 4q-101 0 -174 -105q-89 -127 -91 -360q-1 -8 -1 -17q0 -221 65 -362q67 -146 233 -146q165 0 165 286l-229 10l-13 186l572 36l9 -235h-132q1 -29 1 -57q0 -284 -130 -394q-111 -95 -275 -95q-48 0 -100 9
q-232 35 -315 367q-42 163 -42 342q0 183 44 383q83 382 425 382h20q360 -12 400 -377z" />
    <glyph glyph-name="H" unicode="H" horiz-adv-x="985" 
d="M225 1474l-5 -632l355 29l-9 603l239 -8q0 -460 30 -1460l-207 9l-25 570l-318 -8l-25 -571h-260q6 394 6 885q0 273 -2 575z" />
    <glyph glyph-name="I" unicode="I" horiz-adv-x="416" 
d="M266 1422q-24 -379 -24 -958q0 -248 4 -533l-221 6v76q0 522 -25 1392z" />
    <glyph glyph-name="J" unicode="J" horiz-adv-x="1014" 
d="M0 564l235 70q19 -304 155 -322q16 -3 31 -3q111 0 164 120q40 93 40 573q0 218 -8 515l244 16q3 -220 3 -400q0 -654 -40 -775q-51 -154 -173.5 -218.5t-274.5 -66.5h-7q-148 0 -247 89q-101 90 -122 402z" />
    <glyph glyph-name="K" unicode="K" horiz-adv-x="1085" 
d="M250 1414l-10 -669l366 683l299 -22q-202 -276 -429 -627l459 -836l-332 13q-133 373 -301 620l-61 -93l-14 -541l-222 -5q6 246 6 550q0 413 -11 932z" />
    <glyph glyph-name="L" unicode="L" horiz-adv-x="912" 
d="M286 1452q-28 -538 -29 -1210h501l4 -255q-276 5 -728 5q0 527 -34 1438z" />
    <glyph glyph-name="M" unicode="M" horiz-adv-x="1378" 
d="M29 -2q2 168 2 327q0 621 -31 1106l355 30l248 -1153q195 771 276 1149l340 -9q0 -929 9 -1438l-267 -9q26 536 35 954l-268 -936l-282 -5l-196 941q-23 -910 -23 -961z" />
    <glyph glyph-name="N" unicode="N" horiz-adv-x="1037" 
d="M0 1454l292 18q189 -555 374 -1011q-6 192 -39 1030h237q-2 -120 -2 -264q0 -477 25 -1218l-300 19q-137 348 -385 1018q15 -291 15 -795q0 -112 -1 -234l-188 1q-9 697 -28 1436z" />
    <glyph glyph-name="O" unicode="O" 
d="M859 784q1 -52 1 -100q0 -539 -133 -647q-117 -94 -294 -94q-44 0 -92 6q-241 29 -308 342q-33 156 -33 336q0 179 33 383q67 404 436 404h4q373 -2 386 -630zM456 1154h-2q-182 0 -214 -273q-17 -137 -17 -258t17 -227q32 -211 150 -231q23 -5 45 -5q87 0 145 66
q66 75 66 441v63q-6 422 -190 424z" />
    <glyph glyph-name="P" unicode="P" horiz-adv-x="999" 
d="M4 36q0 929 -4 1467q52 1 99 1q266 0 404 -24q162 -28 250 -167.5t96 -295.5v-38q0 -134 -46 -244q-53 -127 -207 -193q-127 -55 -271 -55q-30 0 -61 2q-1 -77 -1 -146q0 -180 9 -307h-268zM236 690q19 -1 37 -1q200 0 278 82q70 73 70 203q0 26 -3 54q-17 169 -126 228
q-84 44 -192 44q-33 0 -68 -4z" />
    <glyph glyph-name="Q" unicode="Q" horiz-adv-x="1015" 
d="M462 1224h-2q-182 0 -214 -273q-17 -136 -17 -256q0 -123 17 -229q33 -211 150 -231q24 -5 45 -5q87 0 145 66q66 75 66 441v63q-6 422 -190 424zM152.5 122q-118.5 106 -144.5 412q-8 91 -8 177q0 205 44 385q61 256 183 329q99 58 204 58q25 0 50 -3
q132 -17 239.5 -132t129.5 -328q15 -156 15 -304q0 -55 -2 -109q-8 -200 -54.5 -329.5t-190.5 -214.5q69 -163 150 -321l-212 -97q-16 83 -123 353q-162 18 -280.5 124z" />
    <glyph glyph-name="R" unicode="R" horiz-adv-x="982" 
d="M236 657h19q213 0 281 89q57 75 57 186q0 25 -3 52q-16 146 -113 184q-54 21 -123 21q-55 0 -121 -14zM17 -49q0 845 -17 1459q138 12 250 12q336 0 449 -109q133 -129 133 -348q0 -30 -2 -61q-21 -263 -210 -331q108 -265 206 -606l-240 -83q-85 354 -178 575l-144 -28
v-485z" />
    <glyph glyph-name="S" unicode="S" horiz-adv-x="1005" 
d="M0 507l234 59q0 -219 72 -269q58 -40 122 -40q16 0 33 3q82 12 116 68q21 36 21 92q0 31 -6 69q-19 104 -139.5 157.5t-224 107.5t-146.5 158q-34 81 -34 176q0 28 3 57q12 128 128 231q109 97 257 97h19q159 -7 259.5 -108t109.5 -378l-218 -53q-14 227 -81 272
q-43 28 -88 28q-26 0 -53 -10q-73 -26 -100 -100q-10 -27 -10 -54q0 -46 31 -90q47 -69 268.5 -156.5t258.5 -215.5q23 -78 23 -155q0 -48 -9 -96q-24 -123 -85 -207.5t-187 -127.5q-80 -28 -160 -28q-47 0 -93 9q-127 25 -220 134t-101 370z" />
    <glyph glyph-name="T" unicode="T" horiz-adv-x="945" 
d="M0 1212q10 86 10 174q0 22 -1 44q335 -17 569 -17q117 0 209 4q8 -152 8 -218l-266 -4q-1 -160 -1 -313q0 -494 10 -904l-267 5q30 422 30 960q0 116 -1 238v10z" />
    <glyph glyph-name="U" unicode="U" horiz-adv-x="1049" 
d="M0 1425l246 22q-13 -753 -13 -880t44.5 -210.5t133.5 -94.5q11 -1 22 -1q74 0 124 62q58 72 67 183q2 32 2 130q0 229 -14 816h287q-17 -655 -26 -911t-64 -368t-177 -153q-75 -25 -168 -25q-61 0 -129 11q-174 26 -248 197.5t-76 321t-11 900.5z" />
    <glyph glyph-name="V" unicode="V" horiz-adv-x="1198" 
d="M328 31q-111 634 -328 1512h287q74 -629 187 -1178q155 643 274 1188l300 -13q-229 -644 -433 -1491z" />
    <glyph glyph-name="W" unicode="W" horiz-adv-x="1773" 
d="M264 1408q55 -420 186 -1162l167 1015l378 -22l145 -878q77 413 220 1053l263 -9q-242 -811 -313 -1475l-323 26q-53 478 -184 1005q-99 -436 -218 -1005l-313 -26q-77 550 -272 1461z" />
    <glyph glyph-name="X" unicode="X" horiz-adv-x="1132" 
d="M612 683l370 -737l-261 -7l-249 527l-231 -538l-235 16l352 742l-358 719l277 9l210 -543l228 542l242 -14z" />
    <glyph glyph-name="Y" unicode="Y" horiz-adv-x="1153" 
d="M330 52l13 657l-343 793l243 13l222 -587l270 583l268 -31l-429 -774l-26 -654h-218z" />
    <glyph glyph-name="Z" unicode="Z" horiz-adv-x="911" 
d="M22 1170l-9 287q619 -30 718 -30l30 -273l-515 -912q312 4 506 13v-276q-350 26 -739 30l-13 268l519 897z" />
    <glyph glyph-name="bracketleft" unicode="[" horiz-adv-x="695" 
d="M533 1607l-4 -213h-290l6 -1403l297 -4l3 -216l-532 10l-13 1819z" />
    <glyph glyph-name="backslash" unicode="\" horiz-adv-x="689" 
d="M0 1575l144 50l395 -1804l-150 -50z" />
    <glyph glyph-name="bracketright" unicode="]" horiz-adv-x="695" 
d="M12 -229l4 213h290l-6 1403l-297 4l-3 216l532 -10l13 -1819z" />
    <glyph glyph-name="grave" unicode="`" horiz-adv-x="475" 
d="M262 1177l-262 130l89 155l236 -196z" />
    <glyph glyph-name="a" unicode="a" horiz-adv-x="890" 
d="M366 999h24q159 0 224 -57q69 -61 99 -150q27 -83 27 -770v-96l-203 5l2 132q-88 -107 -203 -120q-22 -3 -43 -3q-89 0 -161 45q-90 54 -119 146q-13 42 -13 88q0 54 18 114q34 111 153 175q109 59 293 59h29q-5 206 -59 230q-28 12 -58 12q-29 0 -60 -11
q-63 -24 -63 -148l-230 30v7q0 96 81 200q84 107 262 112zM530 415q-245 -17 -269 -145q-6 -28 -6 -51q0 -81 68 -94q12 -2 25 -2q79 0 181 87z" />
    <glyph glyph-name="b" unicode="b" horiz-adv-x="898" 
d="M340 217q13 -3 25 -3q65 0 96 68q36 81 41 160q1 26 1 55q0 60 -6 135q-9 112 -72 173q-34 32 -67 32q-31 0 -62 -27q-65 -56 -87 -179v-249q46 -150 131 -165zM219 916q105 152 209 152q7 0 15 -1q111 -11 183.5 -99t101.5 -240q20 -107 20 -205q0 -43 -3 -83
q-13 -136 -53 -244t-109 -156q-60 -42 -156 -42q-13 0 -28 1q-115 7 -202 133l1 -134l-198 10l11 1439l219 -4z" />
    <glyph glyph-name="c" unicode="c" horiz-adv-x="912" 
d="M435 833q-9 1 -16 1q-79 0 -125 -91q-52 -101 -61 -236q-3 -37 -3 -72q0 -94 19 -174q25 -111 82 -140q22 -12 45 -12q38 0 81 30q68 48 77 189l208 -53q0 -105 -84.5 -219.5t-225.5 -125.5q-20 -2 -40 -2q-118 0 -212 60q-110 70 -155 267q-25 107 -25 215q0 89 17 177
q37 196 143.5 286.5t259.5 90.5t237.5 -92.5t104.5 -278.5l-204 -53q-34 223 -123 233z" />
    <glyph glyph-name="d" unicode="d" horiz-adv-x="891" 
d="M529 469l-5 238q-12 109 -72 168q-33 31 -68 31q-30 0 -62 -24q-70 -51 -94 -177q-14 -76 -14 -141q0 -44 6 -82q16 -96 52 -148.5t88 -52.5q51 0 90.5 50.5t78.5 137.5zM498 1016l3 503h240l-19 -1454h-184v140q-106 -145 -213 -153q-14 -1 -28 -1q-89 0 -147 47
q-67 54 -105.5 163t-43.5 239q-1 20 -1 42q0 113 22 246q26 159 99.5 245t191.5 96q9 1 17 1q106 0 168 -114z" />
    <glyph glyph-name="e" unicode="e" horiz-adv-x="903" 
d="M266 414q-9 -28 -9 -63q0 -32 7 -70q15 -81 68 -110q20 -12 43 -12q36 0 78 30q68 48 77 149l208 -53q-26 -150 -107 -232t-205 -99q-32 -5 -63 -5q-87 0 -161 37q-101 50 -163 234q-39 114 -39 252q0 81 14 171q37 240 143.5 330.5t259.5 90.5q152 0 252 -151
q84 -129 84 -387q0 -47 -3 -98zM528 596q-22 184 -66 234q-27 29 -68 29q-29 0 -64 -14q-88 -34 -107 -259z" />
    <glyph glyph-name="f" unicode="f" horiz-adv-x="916" 
d="M125 -40l6 837l-131 7l6 175l139 1q0 310 76 407t229 106q18 1 36 1q126 0 195 -54q79 -61 85 -288l-187 -30q2 22 2 41q0 112 -65 132q-24 7 -44 7q-44 0 -67 -35q-34 -50 -34 -271v-13h334l-8 -194l-331 -5q-9 -413 -9 -835z" />
    <glyph glyph-name="g" unicode="g" horiz-adv-x="883" 
d="M385 928h-3q-63 0 -102 -53q-41 -55 -52 -154q-6 -52 -6 -111q0 -53 5 -112q10 -125 85 -183q36 -29 71 -29t69 31q65 60 78 172l-5 317q-76 121 -140 122zM20 -188l113 173q105 -120 209 -120h4q105 2 142 76q26 54 26 168q0 41 -3 89q-78 -130 -186 -130q-8 0 -15 1
q-119 9 -192.5 95t-99.5 241q-18 105 -18 198q0 43 4 84q12 127 48.5 244t110.5 166q68 44 162 44h16q104 -4 201 -124l-11 111h187l14 -931q1 -36 1 -68q0 -172 -39 -263q-48 -109 -158 -172q-85 -48 -194 -48q-34 0 -69 4q-153 19 -253 162z" />
    <glyph glyph-name="h" unicode="h" horiz-adv-x="924" 
d="M220 1435l-5 -606q96 194 231 204h18q124 0 224 -121q86 -106 86 -674q0 -133 -5 -292l-221 -11q9 225 9 386q0 349 -43 398q-48 54 -103 54q-17 0 -34 -5q-74 -22 -102 -156q-10 -76 -10 -206q0 -180 19 -463l-284 -9q10 511 10 1493z" />
    <glyph glyph-name="i" unicode="i" horiz-adv-x="387" 
d="M225 1005q-8 -114 -8 -303q0 -297 20 -779l-232 11q10 491 10 1063zM199.5 1431q35.5 -32 35.5 -79t-35.5 -79t-82.5 -32t-82 32t-35 79t35 79t82 32t82.5 -32z" />
    <glyph glyph-name="j" unicode="j" horiz-adv-x="594" 
d="M442 1472q0 -47 -35.5 -79t-82.5 -32q-48 0 -82.5 32t-34.5 79t34.5 79t82.5 32q47 0 82.5 -32t35.5 -79zM52 -203q39 -16 68 -16q39 0 62 27q41 47 47 243q1 176 1 338q0 405 -7 721l221 -12l-20 -1044q0 -305 -77 -404t-186 -103q-21 -1 -40 -1q-80 0 -121 15z" />
    <glyph glyph-name="k" unicode="k" horiz-adv-x="903" 
d="M0 -96q11 386 11 806q0 331 -7 684l231 4q-16 -481 -16 -730q0 -114 3 -180q181 301 281 526l250 3q-172 -258 -288 -486q179 -387 282 -628l-230 -15l-195 441l-65 -125l9 -295z" />
    <glyph glyph-name="l" unicode="l" horiz-adv-x="382" 
d="M220 1475q-8 -273 -8 -560q0 -450 20 -932l-232 -9q10 511 10 1493z" />
    <glyph glyph-name="m" unicode="m" horiz-adv-x="1463" 
d="M211 1135v-217q39 91 97 145t114 68q13 3 28 3q49 0 121 -35q92 -45 136 -181q57 127 129 167.5t139 40.5t161 -47.5t137 -184.5q40 -131 40 -792v-63l-255 5q2 163 2 288q0 322 -14 398q-21 105 -68 141q-14 10 -32 10q-42 0 -109 -61q-79 -72 -79 -576q0 -97 3 -209
h-239q4 203 4 356q0 419 -28 457q-33 42 -84 42q-8 0 -18 -1q-63 -9 -129 -170q-9 -97 -9 -270q0 -172 9 -419l-267 -4q5 227 5 498q0 272 -5 588z" />
    <glyph glyph-name="n" unicode="n" horiz-adv-x="924" 
d="M209 1085l8 -202q94 190 239 200h19q133 0 223 -121q76 -104 76 -652q0 -142 -5 -314l-251 -11q11 290 11 479q0 316 -30 350q-35 40 -83 40q-19 0 -39 -6q-74 -22 -132 -155q-10 -89 -10 -227q0 -190 19 -473l-254 -9q10 511 10 1093z" />
    <glyph glyph-name="o" unicode="o" horiz-adv-x="906" 
d="M756 615v-73q0 -390 -117 -475q-104 -75 -259 -75q-38 0 -79 5q-210 23 -270 274q-31 125 -31 256q0 132 31 270q60 274 383 274h4q326 -2 338 -456zM400 862h-2q-136 0 -159 -161q-12 -83 -12 -165q0 -81 11 -161q23 -164 113 -180q18 -4 35 -4q65 0 107 51
q49 59 49 299v43q-5 277 -142 278z" />
    <glyph glyph-name="p" unicode="p" horiz-adv-x="881" 
d="M189 724l1 -222q16 -113 88 -173q42 -36 86 -36q33 0 67 19q81 44 90 171q4 59 4 113q0 60 -5 114q-10 100 -51 155.5t-98 55.5t-99 -52.5t-83 -144.5zM210 215l5 -444h-210l-5 1354h184l2 -141q104 145 211 154q14 1 28 1q88 0 148 -47q68 -55 108 -163.5t48 -238.5
q2 -32 2 -67q0 -103 -18 -221q-24 -159 -95.5 -245t-189.5 -96q-7 -1 -14 -1q-110 0 -204 155z" />
    <glyph glyph-name="q" unicode="q" horiz-adv-x="891" 
d="M453 735.5q-43 53.5 -100 53.5t-96.5 -56.5t-46.5 -158.5q-4 -41 -4 -87q0 -67 7 -143q11 -129 93 -189q40 -30 77 -30q39 0 76 32q71 62 85 177l-5 264q-43 84 -86 137.5zM528 75q-91 -155 -201 -155q-7 0 -14 1q-118 10 -191.5 95.5t-99.5 245.5q-22 133 -22 246
q0 22 1 43q5 129 43.5 237.5t105.5 163.5q58 47 146 47q14 0 29 -1q107 -9 213 -144v131h184l19 -1354h-210z" />
    <glyph glyph-name="r" unicode="r" horiz-adv-x="886" 
d="M512 865q-44 39 -95 39q-20 0 -40 -6q-74 -22 -132 -155q-10 -89 -10 -227q0 -190 19 -473l-254 -9q10 511 10 1093l199 8l8 -202q94 190 229 200h18q124 0 224 -122q29 -37 48 -124l-199 -88q-9 52 -25 66z" />
    <glyph glyph-name="s" unicode="s" horiz-adv-x="901" 
d="M0 297l215 30q14 -140 96 -155q29 -5 55 -5q43 0 74 16q47 26 61 101q1 6 1 12q0 67 -138 124q-151 62 -243 138t-96 199q-1 9 -1 19q0 109 50 169q54 64 146 104q74 32 168 32q22 0 44 -2q121 -9 199.5 -76t115.5 -286l-200 -18q-24 137 -93 163q-47 17 -83 17
q-18 0 -33 -4q-47 -13 -72 -68q-12 -27 -12 -54q0 -26 12 -51q25 -51 199.5 -116.5t225.5 -134.5t59 -162q1 -11 1 -21q0 -82 -57 -157q-64 -84 -206 -121q-61 -16 -123 -16q-84 0 -169 29q-150 50 -196 294z" />
    <glyph glyph-name="t" unicode="t" horiz-adv-x="708" 
d="M9 898l-9 191l162 4l-5 428l213 4v-423h183l5 -204l-194 4q-13 -206 -13 -342q0 -223 34 -259q36 -40 98 -40q31 0 68 10l2 -206q-72 -16 -131 -16q-72 0 -126 24q-99 44 -124 133q-21 70 -21 185q0 31 2 66v438z" />
    <glyph glyph-name="u" unicode="u" horiz-adv-x="928" 
d="M569 -36l-8 202q-95 -190 -245 -199q-9 -1 -17 -1q-139 0 -229 150q-70 117 -70 569q0 162 9 367l221 12q-12 -240 -12 -409q0 -327 44 -385q49 -66 104 -66q20 0 40 8q78 31 137 165q7 99 7 277q0 167 -6 402l234 9q-10 -511 -10 -1093z" />
    <glyph glyph-name="v" unicode="v" horiz-adv-x="924" 
d="M228 997q86 -465 140 -810q93 368 165 814h241q-164 -514 -285 -1082l-253 -18q-98 514 -236 1078z" />
    <glyph glyph-name="w" unicode="w" horiz-adv-x="1521" 
d="M193 -2q-83 550 -193 1038l246 27q62 -379 97 -831l180 837l285 9l143 -838q104 515 152 833l268 -18q-164 -578 -279 -1057h-303l-143 733l-154 -733h-299z" />
    <glyph glyph-name="x" unicode="x" horiz-adv-x="886" 
d="M234 1127l141 -413l153 417l208 -17l-227 -539l210 -538l-204 5l-158 382l-128 -369l-216 -4l203 520l-216 525z" />
    <glyph glyph-name="y" unicode="y" horiz-adv-x="959" 
d="M273 53q-122 435 -273 935l241 9q63 -370 144 -725l147 725l277 -5q-222 -593 -446 -1374l-201 67z" />
    <glyph glyph-name="z" unicode="z" horiz-adv-x="800" 
d="M628 1007l4 -257l-413 -596q199 19 422 33l9 -253q-129 8 -325 8q-136 0 -303 -4l-9 231l379 616q-181 -9 -392 -40v257z" />
    <glyph glyph-name="braceleft" unicode="{" horiz-adv-x="905" 
d="M741 -226q-502 0 -522 445l7 258q-13 97 -220 104l-6 135q219 32 219 142l-6 303q-1 10 -1 21q0 121 75 273q78 158 417 158h25v-202h-13q-258 0 -271 -243l-6 -316v-14q0 -143 -119 -180q133 -46 133 -156q0 -15 -2 -31l7 -245q13 -252 290 -252h7v-200h-14z" />
    <glyph glyph-name="bar" unicode="|" horiz-adv-x="345" 
d="M195 -229l-190 10l-5 1844l184 -10z" />
    <glyph glyph-name="braceright" unicode="}" horiz-adv-x="905" 
d="M0 -26h7q277 0 290 252l7 245q-2 16 -2 31q0 110 133 156q-119 37 -119 180v14l-6 316q-13 243 -271 243h-13v202h25q339 0 417 -158q75 -152 75 -273q0 -11 -1 -21l-6 -303q0 -110 219 -142l-6 -135q-207 -7 -220 -104l7 -258q-20 -445 -522 -445h-14v200z" />
    <glyph glyph-name="Adieresis" unicode="&#xc4;" horiz-adv-x="1080" 
d="M606 1450q138 -715 324 -1417l-273 -21l-84 383l-283 -16l-52 -354l-238 -13q126 773 217 1426zM568 602l-114 654l-62 -15l-98 -639h274zM369 1864l-8 -244l-179 17l-13 230zM763 1875l-6 -236l-178 -7l-1 238z" />
    <glyph glyph-name="Aring" unicode="&#xc5;" horiz-adv-x="1080" 
d="M427 1613q39 0 59 30t20 79q0 41 -20 74t-59 33q-40 0 -59 -32t-19 -77q0 -47 21.5 -77t56.5 -30zM422 1539q-92 0 -136 53t-44 130q0 80 50.5 127t132.5 47q92 0 138 -52.5t46 -121.5q0 -51 -15 -85.5t-40.5 -56.5t-60 -31.5t-71.5 -9.5zM606 1450q138 -715 324 -1417
l-273 -21l-84 383l-283 -16l-52 -354l-238 -13q126 773 217 1426zM568 602l-114 654l-62 -15l-98 -639h274z" />
    <glyph glyph-name="Ccedilla" unicode="&#xc7;" horiz-adv-x="1017" 
d="M843 1020l-227 -65q-21 192 -142 223q-23 6 -44 6q-88 0 -135 -108q-58 -133 -69 -364q-3 -55 -3 -106q0 -160 28 -271q36 -147 202 -147q165 0 166 301l248 -57q-27 -291 -170 -412q-111 -95 -275 -95q-48 0 -100 9q-232 35 -292 353q-30 156 -30 332q0 183 32 388
q60 391 402 391h20q360 -12 389 -378zM446 -69q-2 -10 -3 -23q-2 -27 -7 -76q98 -5 146 -42t48 -97q0 -81 -65.5 -126t-166.5 -45q-42 0 -85.5 9t-74.5 22q2 13 6 33q4 16 8 38t6 39q22 -12 65.5 -21.5t82.5 -9.5q34 0 61 13t27 37q0 29 -42 44q-29 10 -78 10q-23 0 -51 -2
q3 18 11 51q6 29 13.5 66t12.5 79z" />
    <glyph glyph-name="Eacute" unicode="&#xc9;" horiz-adv-x="852" 
d="M664 1519l10 -275q-43 1 -103 1q-135 0 -354 -6l4 -371q188 0 364 5l-4 -231q-63 4 -126 4q-94 0 -188 -9v-335h431l4 -265q-236 5 -688 5q3 171 3 368q0 472 -17 1090zM244 1696l236 196l89 -155l-262 -130z" />
    <glyph glyph-name="Ntilde" unicode="&#xd1;" horiz-adv-x="1037" 
d="M0 1454l292 18q189 -555 374 -1011q-6 192 -39 1030h237q-2 -120 -2 -264q0 -477 25 -1218l-300 19q-137 348 -385 1018q15 -291 15 -795q0 -112 -1 -234l-188 1q-9 697 -28 1436zM299 1635h-25q-19 0 -48 -2l-58 -4q-1 15 -1 30q0 94 39 155q45 70 115 70q35 0 66 -16
t57.5 -34t49.5 -35.5t46 -17.5q56 0 56 69q0 15 -2 32q21 -4 21 -6q0 -1 -3 -1q17 0 43 3.5t59 6.5q5 -37 5 -70q0 -71 -25 -117q-38 -67 -125 -67q-34 0 -62 13.5t-54 31t-49.5 32.5t-47.5 15q-58 0 -58 -73q0 -7 1 -15z" />
    <glyph glyph-name="Odieresis" unicode="&#xd6;" 
d="M859 784q1 -52 1 -100q0 -539 -133 -647q-117 -94 -294 -94q-44 0 -92 6q-241 29 -308 342q-33 156 -33 336q0 179 33 383q67 404 436 404h4q373 -2 386 -630zM456 1154h-2q-182 0 -214 -273q-17 -137 -17 -258t17 -227q32 -211 150 -231q23 -5 45 -5q87 0 145 66
q66 75 66 441v63q-6 422 -190 424zM333 1864l-8 -244l-179 17l-13 230zM727 1875l-6 -236l-178 -7l-1 238z" />
    <glyph glyph-name="Udieresis" unicode="&#xdc;" horiz-adv-x="1049" 
d="M0 1425l246 22q-13 -753 -13 -880t44.5 -210.5t133.5 -94.5q11 -1 22 -1q74 0 124 62q58 72 67 183q2 32 2 130q0 229 -14 816h287q-17 -655 -26 -911t-64 -368t-177 -153q-75 -25 -168 -25q-61 0 -129 11q-174 26 -248 197.5t-76 321t-11 900.5zM353 1864l-8 -244
l-179 17l-13 230zM747 1875l-6 -236l-178 -7l-1 238z" />
    <glyph glyph-name="aacute" unicode="&#xe1;" horiz-adv-x="890" 
d="M366 999h24q159 0 224 -57q69 -61 99 -150q27 -83 27 -770v-96l-203 5l2 132q-88 -107 -203 -120q-22 -3 -43 -3q-89 0 -161 45q-90 54 -119 146q-13 42 -13 88q0 54 18 114q34 111 153 175q109 59 293 59h29q-5 206 -59 230q-28 12 -58 12q-29 0 -60 -11
q-63 -24 -63 -148l-230 30v7q0 96 81 200q84 107 262 112zM530 415q-245 -17 -269 -145q-6 -28 -6 -51q0 -81 68 -94q12 -2 25 -2q79 0 181 87zM263 1266l236 196l89 -155l-262 -130z" />
    <glyph glyph-name="agrave" unicode="&#xe0;" horiz-adv-x="890" 
d="M366 999h24q159 0 224 -57q69 -61 99 -150q27 -83 27 -770v-96l-203 5l2 132q-88 -107 -203 -120q-22 -3 -43 -3q-89 0 -161 45q-90 54 -119 146q-13 42 -13 88q0 54 18 114q34 111 153 175q109 59 293 59h29q-5 206 -59 230q-28 12 -58 12q-29 0 -60 -11
q-63 -24 -63 -148l-230 30v7q0 96 81 200q84 107 262 112zM530 415q-245 -17 -269 -145q-6 -28 -6 -51q0 -81 68 -94q12 -2 25 -2q79 0 181 87zM414 1177l-262 130l89 155l236 -196z" />
    <glyph glyph-name="acircumflex" unicode="&#xe2;" horiz-adv-x="890" 
d="M366 999h24q159 0 224 -57q69 -61 99 -150q27 -83 27 -770v-96l-203 5l2 132q-88 -107 -203 -120q-22 -3 -43 -3q-89 0 -161 45q-90 54 -119 146q-13 42 -13 88q0 54 18 114q34 111 153 175q109 59 293 59h29q-5 206 -59 230q-28 12 -58 12q-29 0 -60 -11
q-63 -24 -63 -148l-230 30v7q0 96 81 200q84 107 262 112zM530 415q-245 -17 -269 -145q-6 -28 -6 -51q0 -81 68 -94q12 -2 25 -2q79 0 181 87zM446 1561q88 -148 227 -305l-116 -54l-183 181l-181 -187l-126 51q115 159 226 314h153z" />
    <glyph glyph-name="adieresis" unicode="&#xe4;" horiz-adv-x="890" 
d="M366 999h24q159 0 224 -57q69 -61 99 -150q27 -83 27 -770v-96l-203 5l2 132q-88 -107 -203 -120q-22 -3 -43 -3q-89 0 -161 45q-90 54 -119 146q-13 42 -13 88q0 54 18 114q34 111 153 175q109 59 293 59h29q-5 206 -59 230q-28 12 -58 12q-29 0 -60 -11
q-63 -24 -63 -148l-230 30v7q0 96 81 200q84 107 262 112zM530 415q-245 -17 -269 -145q-6 -28 -6 -51q0 -81 68 -94q12 -2 25 -2q79 0 181 87zM273 1434l-8 -244l-179 17l-13 230zM667 1445l-6 -236l-178 -7l-1 238z" />
    <glyph glyph-name="atilde" unicode="&#xe3;" horiz-adv-x="890" 
d="M366 999h24q159 0 224 -57q69 -61 99 -150q27 -83 27 -770v-96l-203 5l2 132q-88 -107 -203 -120q-22 -3 -43 -3q-89 0 -161 45q-90 54 -119 146q-13 42 -13 88q0 54 18 114q34 111 153 175q109 59 293 59h29q-5 206 -59 230q-28 12 -58 12q-29 0 -60 -11
q-63 -24 -63 -148l-230 30v7q0 96 81 200q84 107 262 112zM530 415q-245 -17 -269 -145q-6 -28 -6 -51q0 -81 68 -94q12 -2 25 -2q79 0 181 87zM226 1205h-25q-19 0 -48 -2l-58 -4q-1 15 -1 30q0 94 39 155q45 70 115 70q35 0 66 -16t57.5 -34t49.5 -35.5t46 -17.5
q56 0 56 69q0 15 -2 32q21 -4 21 -6q0 -1 -3 -1q17 0 43 3.5t59 6.5q5 -37 5 -70q0 -71 -25 -117q-38 -67 -125 -67q-34 0 -62 13.5t-54 31t-49.5 32.5t-47.5 15q-58 0 -58 -73q0 -7 1 -15z" />
    <glyph glyph-name="aring" unicode="&#xe5;" horiz-adv-x="890" 
d="M371 1183q39 0 59 30t20 79q0 41 -20 74t-59 33q-40 0 -59 -32t-19 -77q0 -47 21.5 -77t56.5 -30zM366 1109q-92 0 -136 53t-44 130q0 80 50.5 127t132.5 47q92 0 138 -52.5t46 -121.5q0 -51 -15 -85.5t-40.5 -56.5t-60 -31.5t-71.5 -9.5zM366 999h24q159 0 224 -57
q69 -61 99 -150q27 -83 27 -770v-96l-203 5l2 132q-88 -107 -203 -120q-22 -3 -43 -3q-89 0 -161 45q-90 54 -119 146q-13 42 -13 88q0 54 18 114q34 111 153 175q109 59 293 59h29q-5 206 -59 230q-28 12 -58 12q-29 0 -60 -11q-63 -24 -63 -148l-230 30v7q0 96 81 200
q84 107 262 112zM530 415q-245 -17 -269 -145q-6 -28 -6 -51q0 -81 68 -94q12 -2 25 -2q79 0 181 87z" />
    <glyph glyph-name="ccedilla" unicode="&#xe7;" horiz-adv-x="912" 
d="M435 833q-9 1 -16 1q-79 0 -125 -91q-52 -101 -61 -236q-3 -37 -3 -72q0 -94 19 -174q25 -111 82 -140q22 -12 45 -12q38 0 81 30q68 48 77 189l208 -53q0 -105 -84.5 -219.5t-225.5 -125.5q-20 -2 -40 -2q-118 0 -212 60q-110 70 -155 267q-25 107 -25 215q0 89 17 177
q37 196 143.5 286.5t259.5 90.5t237.5 -92.5t104.5 -278.5l-204 -53q-34 223 -123 233zM393 -59q-2 -10 -3 -23q-2 -27 -7 -76q98 -5 146 -42t48 -97q0 -81 -65.5 -126t-166.5 -45q-42 0 -85.5 9t-74.5 22q2 13 6 33q4 16 8 38t6 39q22 -12 65.5 -21.5t82.5 -9.5q34 0 61 13
t27 37q0 29 -42 44q-29 10 -78 10q-23 0 -51 -2q3 18 11 51q6 29 13.5 66t12.5 79z" />
    <glyph glyph-name="eacute" unicode="&#xe9;" horiz-adv-x="903" 
d="M266 414q-9 -28 -9 -63q0 -32 7 -70q15 -81 68 -110q20 -12 43 -12q36 0 78 30q68 48 77 149l208 -53q-26 -150 -107 -232t-205 -99q-32 -5 -63 -5q-87 0 -161 37q-101 50 -163 234q-39 114 -39 252q0 81 14 171q37 240 143.5 330.5t259.5 90.5q152 0 252 -151
q84 -129 84 -387q0 -47 -3 -98zM528 596q-22 184 -66 234q-27 29 -68 29q-29 0 -64 -14q-88 -34 -107 -259zM269 1266l236 196l89 -155l-262 -130z" />
    <glyph glyph-name="egrave" unicode="&#xe8;" horiz-adv-x="903" 
d="M266 414q-9 -28 -9 -63q0 -32 7 -70q15 -81 68 -110q20 -12 43 -12q36 0 78 30q68 48 77 149l208 -53q-26 -150 -107 -232t-205 -99q-32 -5 -63 -5q-87 0 -161 37q-101 50 -163 234q-39 114 -39 252q0 81 14 171q37 240 143.5 330.5t259.5 90.5q152 0 252 -151
q84 -129 84 -387q0 -47 -3 -98zM528 596q-22 184 -66 234q-27 29 -68 29q-29 0 -64 -14q-88 -34 -107 -259zM421 1177l-262 130l89 155l236 -196z" />
    <glyph glyph-name="ecircumflex" unicode="&#xea;" horiz-adv-x="903" 
d="M266 414q-9 -28 -9 -63q0 -32 7 -70q15 -81 68 -110q20 -12 43 -12q36 0 78 30q68 48 77 149l208 -53q-26 -150 -107 -232t-205 -99q-32 -5 -63 -5q-87 0 -161 37q-101 50 -163 234q-39 114 -39 252q0 81 14 171q37 240 143.5 330.5t259.5 90.5q152 0 252 -151
q84 -129 84 -387q0 -47 -3 -98zM528 596q-22 184 -66 234q-27 29 -68 29q-29 0 -64 -14q-88 -34 -107 -259zM452 1561q88 -148 227 -305l-116 -54l-183 181l-181 -187l-126 51q115 159 226 314h153z" />
    <glyph glyph-name="edieresis" unicode="&#xeb;" horiz-adv-x="903" 
d="M266 414q-9 -28 -9 -63q0 -32 7 -70q15 -81 68 -110q20 -12 43 -12q36 0 78 30q68 48 77 149l208 -53q-26 -150 -107 -232t-205 -99q-32 -5 -63 -5q-87 0 -161 37q-101 50 -163 234q-39 114 -39 252q0 81 14 171q37 240 143.5 330.5t259.5 90.5q152 0 252 -151
q84 -129 84 -387q0 -47 -3 -98zM528 596q-22 184 -66 234q-27 29 -68 29q-29 0 -64 -14q-88 -34 -107 -259zM280 1434l-8 -244l-179 17l-13 230zM674 1445l-6 -236l-178 -7l-1 238z" />
    <glyph glyph-name="iacute" unicode="&#xed;" horiz-adv-x="484" 
d="M220 1065q-8 -114 -8 -303q0 -297 20 -779l-232 11q10 491 10 1063zM9 1266l236 196l89 -155l-262 -130z" />
    <glyph glyph-name="igrave" unicode="&#xec;" horiz-adv-x="484" 
d="M322 1065q-8 -114 -8 -303q0 -297 20 -779l-232 11q10 491 10 1063zM262 1177l-262 130l89 155l236 -196z" />
    <glyph glyph-name="icircumflex" unicode="&#xee;" horiz-adv-x="756" 
d="M408 1065q-8 -114 -8 -303q0 -297 20 -779l-232 11q10 491 10 1063zM379 1561q88 -148 227 -305l-116 -54l-183 181l-181 -187l-126 51q115 159 226 314h153z" />
    <glyph glyph-name="idieresis" unicode="&#xef;" horiz-adv-x="744" 
d="M401 1065q-8 -114 -8 -303q0 -297 20 -779l-232 11q10 491 10 1063zM200 1434l-8 -244l-179 17l-13 230zM594 1445l-6 -236l-178 -7l-1 238z" />
    <glyph glyph-name="ntilde" unicode="&#xf1;" horiz-adv-x="924" 
d="M209 1085l8 -202q94 190 239 200h19q133 0 223 -121q76 -104 76 -652q0 -142 -5 -314l-251 -11q11 290 11 479q0 316 -30 350q-35 40 -83 40q-19 0 -39 -6q-74 -22 -132 -155q-10 -89 -10 -227q0 -190 19 -473l-254 -9q10 511 10 1093zM243 1205h-25q-19 0 -48 -2l-58 -4
q-1 15 -1 30q0 94 39 155q45 70 115 70q35 0 66 -16t57.5 -34t49.5 -35.5t46 -17.5q56 0 56 69q0 15 -2 32q21 -4 21 -6q0 -1 -3 -1q17 0 43 3.5t59 6.5q5 -37 5 -70q0 -71 -25 -117q-38 -67 -125 -67q-34 0 -62 13.5t-54 31t-49.5 32.5t-47.5 15q-58 0 -58 -73q0 -7 1 -15z
" />
    <glyph glyph-name="oacute" unicode="&#xf3;" horiz-adv-x="906" 
d="M756 615v-73q0 -390 -117 -475q-104 -75 -259 -75q-38 0 -79 5q-210 23 -270 274q-31 125 -31 256q0 132 31 270q60 274 383 274h4q326 -2 338 -456zM400 862h-2q-136 0 -159 -161q-12 -83 -12 -165q0 -81 11 -161q23 -164 113 -180q18 -4 35 -4q65 0 107 51
q49 59 49 299v43q-5 277 -142 278zM271 1266l236 196l89 -155l-262 -130z" />
    <glyph glyph-name="ograve" unicode="&#xf2;" horiz-adv-x="906" 
d="M756 615v-73q0 -390 -117 -475q-104 -75 -259 -75q-38 0 -79 5q-210 23 -270 274q-31 125 -31 256q0 132 31 270q60 274 383 274h4q326 -2 338 -456zM400 862h-2q-136 0 -159 -161q-12 -83 -12 -165q0 -81 11 -161q23 -164 113 -180q18 -4 35 -4q65 0 107 51
q49 59 49 299v43q-5 277 -142 278zM423 1177l-262 130l89 155l236 -196z" />
    <glyph glyph-name="ocircumflex" unicode="&#xf4;" horiz-adv-x="906" 
d="M756 615v-73q0 -390 -117 -475q-104 -75 -259 -75q-38 0 -79 5q-210 23 -270 274q-31 125 -31 256q0 132 31 270q60 274 383 274h4q326 -2 338 -456zM400 862h-2q-136 0 -159 -161q-12 -83 -12 -165q0 -81 11 -161q23 -164 113 -180q18 -4 35 -4q65 0 107 51
q49 59 49 299v43q-5 277 -142 278zM454 1561q88 -148 227 -305l-116 -54l-183 181l-181 -187l-126 51q115 159 226 314h153z" />
    <glyph glyph-name="odieresis" unicode="&#xf6;" horiz-adv-x="906" 
d="M756 615v-73q0 -390 -117 -475q-104 -75 -259 -75q-38 0 -79 5q-210 23 -270 274q-31 125 -31 256q0 132 31 270q60 274 383 274h4q326 -2 338 -456zM400 862h-2q-136 0 -159 -161q-12 -83 -12 -165q0 -81 11 -161q23 -164 113 -180q18 -4 35 -4q65 0 107 51
q49 59 49 299v43q-5 277 -142 278zM281 1434l-8 -244l-179 17l-13 230zM675 1445l-6 -236l-178 -7l-1 238z" />
    <glyph glyph-name="otilde" unicode="&#xf5;" horiz-adv-x="906" 
d="M756 615v-73q0 -390 -117 -475q-104 -75 -259 -75q-38 0 -79 5q-210 23 -270 274q-31 125 -31 256q0 132 31 270q60 274 383 274h4q326 -2 338 -456zM400 862h-2q-136 0 -159 -161q-12 -83 -12 -165q0 -81 11 -161q23 -164 113 -180q18 -4 35 -4q65 0 107 51
q49 59 49 299v43q-5 277 -142 278zM234 1205h-25q-19 0 -48 -2l-58 -4q-1 15 -1 30q0 94 39 155q45 70 115 70q35 0 66 -16t57.5 -34t49.5 -35.5t46 -17.5q56 0 56 69q0 15 -2 32q21 -4 21 -6q0 -1 -3 -1q17 0 43 3.5t59 6.5q5 -37 5 -70q0 -71 -25 -117q-38 -67 -125 -67
q-34 0 -62 13.5t-54 31t-49.5 32.5t-47.5 15q-58 0 -58 -73q0 -7 1 -15z" />
    <glyph glyph-name="uacute" unicode="&#xfa;" horiz-adv-x="928" 
d="M569 -36l-8 202q-95 -190 -245 -199q-9 -1 -17 -1q-139 0 -229 150q-70 117 -70 569q0 162 9 367l221 12q-12 -240 -12 -409q0 -327 44 -385q49 -66 104 -66q20 0 40 8q78 31 137 165q7 99 7 277q0 167 -6 402l234 9q-10 -511 -10 -1093zM282 1266l236 196l89 -155
l-262 -130z" />
    <glyph glyph-name="ugrave" unicode="&#xf9;" horiz-adv-x="928" 
d="M569 -36l-8 202q-95 -190 -245 -199q-9 -1 -17 -1q-139 0 -229 150q-70 117 -70 569q0 162 9 367l221 12q-12 -240 -12 -409q0 -327 44 -385q49 -66 104 -66q20 0 40 8q78 31 137 165q7 99 7 277q0 167 -6 402l234 9q-10 -511 -10 -1093zM433 1177l-262 130l89 155
l236 -196z" />
    <glyph glyph-name="ucircumflex" unicode="&#xfb;" horiz-adv-x="928" 
d="M569 -36l-8 202q-95 -190 -245 -199q-9 -1 -17 -1q-139 0 -229 150q-70 117 -70 569q0 162 9 367l221 12q-12 -240 -12 -409q0 -327 44 -385q49 -66 104 -66q20 0 40 8q78 31 137 165q7 99 7 277q0 167 -6 402l234 9q-10 -511 -10 -1093zM465 1561q88 -148 227 -305
l-116 -54l-183 181l-181 -187l-126 51q115 159 226 314h153z" />
    <glyph glyph-name="udieresis" unicode="&#xfc;" horiz-adv-x="928" 
d="M569 -36l-8 202q-95 -190 -245 -199q-9 -1 -17 -1q-139 0 -229 150q-70 117 -70 569q0 162 9 367l221 12q-12 -240 -12 -409q0 -327 44 -385q49 -66 104 -66q20 0 40 8q78 31 137 165q7 99 7 277q0 167 -6 402l234 9q-10 -511 -10 -1093zM292 1434l-8 -244l-179 17
l-13 230zM686 1445l-6 -236l-178 -7l-1 238z" />
    <glyph glyph-name="dagger" unicode="&#x2020;" horiz-adv-x="1066" 
d="M368 -239l-13 1055l-355 3v181l355 -6v432l180 -7l7 -412l374 -13l-7 -181l-374 3l7 -1068z" />
    <glyph glyph-name="degree" unicode="&#xb0;" horiz-adv-x="750" 
d="M512 1312q88 -88 88 -212t-88 -212t-212 -88t-212 88t-88 212t88 212t212 88t212 -88zM303 1260q-72 0 -122.5 -50.5t-50.5 -121.5q0 -72 50.5 -122.5t122.5 -50.5q71 0 121.5 50.5t50.5 122.5q0 71 -50.5 121.5t-121.5 50.5z" />
    <glyph glyph-name="cent" unicode="&#xa2;" horiz-adv-x="916" 
d="M24 479q-24 127 -24 244q0 100 18 192q38 200 135 287t193 87v265h142v-252q91 0 168 -100t110 -287l-207 -45q-38 219 -128 226h-12q-82 0 -127 -90q-49 -97 -65 -236q-6 -53 -6 -102q0 -80 16 -150q26 -113 94 -132q22 -6 43 -6q44 0 86 26q61 38 67 193l219 -77
q-6 -97 -90 -210t-193 -132v-258l-155 -7v258q-239 69 -284 306z" />
    <glyph glyph-name="sterling" unicode="&#xa3;" horiz-adv-x="1008" 
d="M34 4l-9 257q121 157 121 263v5l-146 11v199l145 4q-1 45 -1 87q0 340 65 466q73 140 205 183q57 18 115 18q75 0 151 -31q134 -55 165 -360l-209 -79q-5 208 -95 219q-18 2 -33 2q-65 0 -97 -37q-39 -47 -50 -145q-6 -54 -6 -145q0 -74 4 -173h281l4 -199l-285 -4
q-5 -143 -115 -310l605 9l9 -242z" />
    <glyph glyph-name="bullet" unicode="&#x2022;" horiz-adv-x="544" 
d="M336 942.5q58 -57.5 58 -139.5q0 -81 -58 -139t-139 -58q-82 0 -139.5 58t-57.5 139q0 82 57.5 139.5t139.5 57.5q81 0 139 -57.5z" />
    <glyph glyph-name="paragraph" unicode="&#xb6;" horiz-adv-x="882" 
d="M560 -26v1381l-136 -13l7 -729q-213 19 -294 96.5t-116 181.5q-21 59 -21 136q0 56 11 122q26 154 81 228.5t139 119.5t194 58q71 8 176 8q57 0 124 -2l7 -1571z" />
    <glyph glyph-name="germandbls" unicode="&#xdf;" horiz-adv-x="1014" 
d="M0 -22l5 1050q8 295 132.5 394.5t236.5 104.5h34q92 0 176 -20q99 -25 167 -135.5t71 -293.5v-7q0 -179 -161 -303q133 -56 179 -189q24 -69 24 -145q0 -73 -22 -153q-44 -165 -180 -234q-108 -55 -252 -55q-37 0 -77 4l1 235q53 -6 97 -6q178 0 197 105q7 42 7 81
q0 83 -32 153q-43 96 -240 96q-17 0 -35 -1l-14 200q273 35 289 152q5 34 5 66q0 76 -27 135q-39 84 -165 87h-5q-122 0 -162 -126q-41 -129 -49 -1190z" />
    <glyph glyph-name="registered" unicode="&#xae;" horiz-adv-x="1382" 
d="M668 1360q-19 1 -38 1q-110 0 -186 -31q-90 -36 -159 -113.5t-98.5 -152.5t-44.5 -200q-12 -91 -12 -197q0 -41 2 -84q6 -156 72 -290.5t186 -196.5q90 -47 191 -47q34 0 69 5q140 21 221 72t134.5 161t71.5 209t21 228v31q0 112 -18 214q-21 116 -74.5 211.5t-128 134.5
t-209.5 45zM951 1488.5q95 -48.5 163 -168t95 -264.5q23 -128 23 -269v-37q-4 -161 -27 -284t-91 -260.5t-171 -201t-281 -89.5q-45 -6 -88 -6q-129 0 -243 58q-153 78 -237 254t-91 362q-3 52 -3 101q0 128 15 242q19 156 56.5 249.5t125.5 190t202 141.5q98 39 238 39
q23 0 48 -1q171 -8 266 -56.5zM509 664h16q127 0 174 60q45 57 45 131v15q-5 83 -85 120q-45 20 -86 20q-35 0 -67 -14zM328 260q0 533 -14 900q120 12 214 12q225 0 309 -68q109 -88 109 -239q0 -14 -1 -29q-12 -171 -168 -227q109 -157 170 -336l-198 -15
q-42 137 -131 257l-86 -23v-236z" />
    <glyph glyph-name="copyright" unicode="&#xa9;" horiz-adv-x="1382" 
d="M660 1011h-14q-68 0 -108 -79q-45 -87 -53 -204q-2 -31 -2 -61q0 -81 16 -151q22 -96 71 -121q19 -10 39 -10q33 0 70 26q59 41 66 163l180 -46q0 -91 -72.5 -190t-195.5 -109q-17 -1 -34 -1q-102 0 -184 52q-95 60 -133 231q-22 93 -22 185q0 77 15 154
q32 169 124 247.5t225 78.5q132 0 205 -80t90 -241l-176 -46q-30 193 -107 202zM951 1488.5q95 -48.5 163 -168t95 -264.5q23 -128 23 -269v-37q-4 -161 -27 -284t-91 -260.5t-171 -201t-281 -89.5q-45 -6 -88 -6q-129 0 -243 58q-153 78 -237 254t-91 362q-3 52 -3 101
q0 128 15 242q19 156 56.5 249.5t125.5 190t202 141.5q98 39 238 39q23 0 48 -1q171 -8 266 -56.5zM668 1360q-19 1 -38 1q-110 0 -186 -31q-90 -36 -159 -113.5t-98.5 -152.5t-44.5 -200q-12 -91 -12 -197q0 -41 2 -84q6 -156 72 -290.5t186 -196.5q90 -47 191 -47
q34 0 69 5q140 21 221 72t134.5 161t71.5 209t21 228v31q0 112 -18 214q-21 116 -74.5 211.5t-128 134.5t-209.5 45z" />
    <glyph glyph-name="trademark" unicode="&#x2122;" horiz-adv-x="1394" 
d="M0 1385q5 49 5 99v29q201 -10 339 -10q65 0 116 2q5 -89 5 -127l-156 -2v-156q0 -306 6 -556l-157 3q19 254 19 579q0 59 -1 121v6zM543 676q1 100 1 194q0 362 -18 644l208 17l145 -674q114 451 161 672l199 -6q0 -543 5 -840l-156 -6q15 314 20 559l-156 -548l-165 -3
l-115 550q-13 -532 -13 -562z" />
    <glyph glyph-name="acute" unicode="&#xb4;" horiz-adv-x="475" 
d="M0 1266l236 196l89 -155l-262 -130z" />
    <glyph glyph-name="dieresis" unicode="&#xa8;" horiz-adv-x="744" 
d="M200 1434l-8 -244l-179 17l-13 230zM594 1445l-6 -236l-178 -7l-1 238z" />
    <glyph glyph-name="AE" unicode="&#xc6;" horiz-adv-x="1476" 
d="M615 602l-2 634l-194 -15l-57 -639zM0 -4q151 732 248 1455q806 4 1033 22l17 -244q-342 0 -460 5l-9 -447q221 0 395 -2l-17 -228l-355 -4l-5 -331q270 0 474 9l5 -257q-606 18 -712 22l-5 396l-284 -17l-75 -374z" />
    <glyph glyph-name="Oslash" unicode="&#xd8;" 
d="M859 784q1 -52 1 -100q0 -539 -133 -647q-117 -94 -294 -94q-44 0 -92 6q-241 29 -308 342q-33 156 -33 336q0 179 33 383q67 404 436 404h4q373 -2 386 -630zM456 1154h-2q-182 0 -214 -273q-17 -137 -17 -258t17 -227q32 -211 150 -231q23 -5 45 -5q87 0 145 66
q66 75 66 441v63q-6 422 -190 424zM310 -229l-150 50l395 1804l144 -50z" />
    <glyph glyph-name="plusminus" unicode="&#xb1;" horiz-adv-x="962" 
d="M5 676l-5 161l306 7l-6 306l224 -6l-9 -288h285l12 -199h-300l-6 -287l-200 -6v293zM5 6l5 181l790 9l12 -199z" />
    <glyph glyph-name="yen" unicode="&#xa5;" horiz-adv-x="1156" 
d="M0 1499l254 23q127 -330 232 -580q110 261 255 568l265 -51q-268 -388 -418 -765l270 6l-10 -138l-280 -10v-119l297 -2v-149l-303 7l-6 -232l-208 -5v249h-288l-11 132l304 6l5 119l-298 -8l-5 139l307 5q-191 458 -362 805z" />
    <glyph glyph-name="mu" unicode="&#xb5;" horiz-adv-x="918" 
d="M229 1138q-7 -397 -7 -559v-61q2 -135 51 -207q35 -52 91 -52q21 0 46 8q88 28 129 156q10 168 10 502q0 103 -1 221l216 4l4 -1094l-193 -18l-9 154q-83 -119 -185 -136q-20 -4 -39 -4q-78 0 -139 58l-9 -535h-194l5 1562z" />
    <glyph glyph-name="ae" unicode="&#xe6;" horiz-adv-x="1424" 
d="M531 485q-275 -17 -299 -145q-5 -24 -5 -45q0 -86 83 -100q15 -2 29 -2q90 0 191 87zM1055 626q-22 184 -66 234q-27 29 -68 29q-29 0 -64 -14q-88 -34 -107 -259zM21 744q0 108 81 207t265 104h12q176 0 283 -123q121 147 267 147h13q153 -7 250 -148q82 -122 82 -391
q0 -45 -2 -94l-521 -18v-5q0 -201 86 -238q34 -16 65 -16q46 0 84 34q62 56 75 162l210 -63q-22 -138 -108 -226.5t-212 -103.5q-29 -4 -57 -4q-92 0 -169 39q-101 51 -136 156q-136 -136 -257 -153q-28 -5 -55 -5q-86 0 -153 45q-87 57 -113 153q-11 42 -11 87q0 57 18 119
q33 111 158 174q96 48 255 48q46 0 97 -4q-10 215 -76 246q-32 15 -65 15q-34 0 -70 -17q-69 -33 -69 -149z" />
    <glyph glyph-name="oslash" unicode="&#xf8;" horiz-adv-x="906" 
d="M756 615v-73q0 -390 -117 -475q-104 -75 -259 -75q-38 0 -79 5q-210 23 -270 274q-31 125 -31 256q0 132 31 270q60 274 383 274h4q326 -2 338 -456zM400 862h-2q-136 0 -159 -161q-12 -83 -12 -165q0 -81 11 -161q23 -164 113 -180q18 -4 35 -4q65 0 107 51
q49 59 49 299v43q-5 277 -142 278zM259 -369l-150 50l395 1804l144 -50z" />
    <glyph glyph-name="questiondown" unicode="&#xbf;" horiz-adv-x="977" 
d="M629 -392q-107 -43 -213 -43q-58 0 -116 13q-162 38 -225 129.5t-74 228.5q-1 19 -1 37q0 119 61 234q71 134 261 170l5 234l185 -9l8 -368q-155 -14 -212 -69q-55 -52 -55 -176v-11q3 -132 66 -177q47 -33 113 -33q23 0 47 3q98 16 122 241l226 -67q-31 -269 -198 -337z
M333.5 798q-36.5 38 -36.5 91t36.5 91.5t91.5 38.5q54 0 91 -38.5t37 -91.5t-37 -91t-91 -38q-55 0 -91.5 38z" />
    <glyph glyph-name="exclamdown" unicode="&#xa1;" horiz-adv-x="387" 
d="M225 561q-8 -114 -8 -303q0 -297 20 -779l-232 11q10 491 10 1063zM200 987q35 -32 35 -79t-35 -79t-83 -32q-47 0 -82 32t-35 79t35 79t82 32q48 0 83 -32z" />
    <glyph glyph-name="logicalnot" unicode="&#xac;" horiz-adv-x="956" 
d="M5 596l-5 181l800 19l6 -486l-200 -6v293z" />
    <glyph glyph-name="florin" unicode="&#x192;" horiz-adv-x="993" 
d="M21 -409l-21 188q16 1 31 4q85 16 147 109q40 60 40 404q0 200 -12 491h-161l6 187l155 7v20q0 260 78 370q80 113 204 126q22 2 43 2q99 0 183 -50q101 -62 129 -301l-206 -19q1 16 1 30q0 132 -68 138h-15q-64 0 -97 -52q-33 -51 -33 -217q0 -22 1 -47h345l3 -187h-346
q-5 -812 -33 -919t-114.5 -191.5t-259.5 -92.5z" />
    <glyph glyph-name="guillemotleft" unicode="&#xab;" horiz-adv-x="1278" 
d="M436 1200l152 -171l-356 -418l368 -386l-148 -164l-452 544zM964 1200l152 -171l-356 -418l368 -386l-148 -164l-452 544z" />
    <glyph glyph-name="guillemotright" unicode="&#xbb;" horiz-adv-x="1278" 
d="M600 605l-452 -544l-148 164l368 386l-356 418l152 171zM1128 605l-452 -544l-148 164l368 386l-356 418l152 171z" />
    <glyph glyph-name="ellipsis" unicode="&#x2026;" horiz-adv-x="1335" 
d="M4 9l-4 236l219 9l-7 -248zM487 9l-4 236l219 9l-7 -248zM970 9l-4 236l219 9l-7 -248z" />
    <glyph glyph-name="Agrave" unicode="&#xc0;" horiz-adv-x="1080" 
d="M606 1450q138 -715 324 -1417l-273 -21l-84 383l-283 -16l-52 -354l-238 -13q126 773 217 1426zM568 602l-114 654l-62 -15l-98 -639h274zM510 1607l-262 130l90 155l235 -196z" />
    <glyph glyph-name="Atilde" unicode="&#xc3;" horiz-adv-x="1080" 
d="M606 1450q138 -715 324 -1417l-273 -21l-84 383l-283 -16l-52 -354l-238 -13q126 773 217 1426zM568 602l-114 654l-62 -15l-98 -639h274zM321 1635h-25q-19 0 -48 -2l-58 -4q-1 15 -1 30q0 94 39 155q45 70 115 70q35 0 66 -16t57.5 -34t49.5 -35.5t46 -17.5q56 0 56 69
q0 15 -2 32q21 -4 21 -6q0 -1 -3 -1q17 0 43 3.5t59 6.5q5 -37 5 -70q0 -71 -25 -117q-38 -67 -125 -67q-34 0 -62 13.5t-54 31t-49.5 32.5t-47.5 15q-58 0 -58 -73q0 -7 1 -15z" />
    <glyph glyph-name="Otilde" unicode="&#xd5;" 
d="M859 784q1 -52 1 -100q0 -539 -133 -647q-117 -94 -294 -94q-44 0 -92 6q-241 29 -308 342q-33 156 -33 336q0 179 33 383q67 404 436 404h4q373 -2 386 -630zM456 1154h-2q-182 0 -214 -273q-17 -137 -17 -258t17 -227q32 -211 150 -231q23 -5 45 -5q87 0 145 66
q66 75 66 441v63q-6 422 -190 424zM285 1635h-25q-19 0 -48 -2l-58 -4q-1 15 -1 30q0 94 39 155q45 70 115 70q35 0 66 -16t57.5 -34t49.5 -35.5t46 -17.5q56 0 56 69q0 15 -2 32q21 -4 21 -6q0 -1 -3 -1q17 0 43 3.5t59 6.5q5 -37 5 -70q0 -71 -25 -117q-38 -67 -125 -67
q-34 0 -62 13.5t-54 31t-49.5 32.5t-47.5 15q-58 0 -58 -73q0 -7 1 -15z" />
    <glyph glyph-name="OE" unicode="&#x152;" horiz-adv-x="1484" 
d="M859 784q1 -52 1 -100q0 -539 -133 -647q-117 -94 -294 -94q-44 0 -92 6q-241 29 -308 342q-33 156 -33 336q0 179 33 383q67 404 436 404h4q373 -2 386 -630zM456 1154h-2q-182 0 -214 -273q-17 -137 -17 -258t17 -227q32 -211 150 -231q23 -5 45 -5q87 0 145 66
q66 75 66 441v63q-6 422 -190 424zM1296 1422l10 -275q-43 1 -103 1q-135 0 -354 -6l4 -371q188 0 364 5l-4 -231q-63 4 -126 4q-94 0 -188 -9v-335h431l4 -265q-236 5 -688 5q3 171 3 368q0 472 -17 1090z" />
    <glyph glyph-name="oe" unicode="&#x153;" horiz-adv-x="1451" 
d="M756 615v-73q0 -390 -117 -475q-104 -75 -259 -75q-38 0 -79 5q-210 23 -270 274q-31 125 -31 256q0 132 31 270q60 274 383 274h4q326 -2 338 -456zM400 862h-2q-136 0 -159 -161q-12 -83 -12 -165q0 -81 11 -161q23 -164 113 -180q18 -4 35 -4q65 0 107 51
q49 59 49 299v43q-5 277 -142 278zM814 414q-9 -28 -9 -63q0 -32 7 -70q15 -81 68 -110q20 -12 43 -12q36 0 78 30q68 48 77 149l208 -53q-26 -150 -107 -232t-205 -99q-32 -5 -63 -5q-87 0 -161 37q-101 50 -163 234q-39 114 -39 252q0 81 14 171q37 240 143.5 330.5
t259.5 90.5q152 0 252 -151q84 -129 84 -387q0 -47 -3 -98zM1076 596q-22 184 -66 234q-27 29 -68 29q-29 0 -64 -14q-88 -34 -107 -259z" />
    <glyph glyph-name="endash" unicode="&#x2013;" horiz-adv-x="662" 
d="M5 606l-5 181l500 9l12 -199z" />
    <glyph glyph-name="emdash" unicode="&#x2014;" horiz-adv-x="662" 
d="M5 606l-5 181l500 9l12 -199z" />
    <glyph glyph-name="quotedblleft" unicode="&#x201c;" horiz-adv-x="670" 
d="M520 1187l-2 -249l-222 -9q5 207 15 294.5t112 223.5l63 -73q-74 -78 -79 -201zM227 1183l-5 -248l-222 7q3 210 8 294t127 202l54 -54q-73 -71 -73 -167q0 -19 3 -40z" />
    <glyph glyph-name="quotedblright" unicode="&#x201d;" horiz-adv-x="674" 
d="M4 1197l-4 236l219 9q5 -104 5 -178q0 -73 -5 -117q-9 -87 -123 -213l-64 59q80 90 80 201zM304 1197l-4 236l219 9q5 -104 5 -178q0 -73 -5 -117q-9 -87 -123 -213l-64 59q80 90 80 201z" />
    <glyph glyph-name="quoteleft" unicode="&#x2018;" horiz-adv-x="377" 
d="M227 1183l-5 -248l-222 7q3 210 8 294t127 202l54 -54q-73 -71 -73 -167q0 -19 3 -40z" />
    <glyph glyph-name="quoteright" unicode="&#x2019;" horiz-adv-x="374" 
d="M4 1197l-4 236l219 9q5 -104 5 -178q0 -73 -5 -117q-9 -87 -123 -213l-64 59q80 90 80 201z" />
    <glyph glyph-name="divide" unicode="&#xf7;" horiz-adv-x="937" 
d="M0 626l5 181l770 9l12 -189zM279 209l-4 236l219 9l-7 -248zM279 1009l-4 236l219 9l-7 -248z" />
    <glyph glyph-name="ydieresis" unicode="&#xff;" horiz-adv-x="959" 
d="M273 53q-122 435 -273 935l241 9q63 -370 144 -725l147 725l277 -5q-222 -593 -446 -1374l-201 67zM308 1434l-8 -244l-179 17l-13 230zM702 1445l-6 -236l-178 -7l-1 238z" />
    <glyph glyph-name="Ydieresis" unicode="&#x178;" horiz-adv-x="1153" 
d="M330 52l13 657l-343 793l243 13l222 -587l270 583l268 -31l-429 -774l-26 -654h-218zM405 1864l-8 -244l-179 17l-13 230zM799 1875l-6 -236l-178 -7l-1 238z" />
    <glyph glyph-name="guilsinglleft" unicode="&#x2039;" horiz-adv-x="750" 
d="M436 1200l152 -171l-356 -418l368 -386l-148 -164l-452 544z" />
    <glyph glyph-name="guilsinglright" unicode="&#x203a;" horiz-adv-x="750" 
d="M600 605l-452 -544l-148 164l368 386l-356 418l152 171z" />
    <glyph glyph-name="daggerdbl" unicode="&#x2021;" horiz-adv-x="1015" 
d="M335 806l-329 3l-6 194l335 -4v427h194l6 -419h330l-13 -213h-329l3 -483l329 6v-200h-310l-10 -375l-187 13l-3 362l-316 7l-6 181h310z" />
    <glyph glyph-name="periodcentered" unicode="&#xb7;" horiz-adv-x="336" 
d="M3.40039 624.649l-3.40039 200.595l186.145 7.64941l-5.94922 -210.794z" />
    <glyph glyph-name="periodcentered" unicode="&#x2219;" horiz-adv-x="336" 
d="M3.40039 624.649l-3.40039 200.595l186.145 7.64941l-5.94922 -210.794z" />
    <glyph glyph-name="quotesinglbase" unicode="&#x201a;" horiz-adv-x="374" 
d="M4 9l-4 236l219 9q5 -104 5 -178q0 -73 -5 -117q-9 -87 -123 -213l-64 59q80 90 80 201z" />
    <glyph glyph-name="quotedblbase" unicode="&#x201e;" horiz-adv-x="674" 
d="M4 9l-4 236l219 9q5 -104 5 -178q0 -73 -5 -117q-9 -87 -123 -213l-64 59q80 90 80 201zM304 9l-4 236l219 9q5 -104 5 -178q0 -73 -5 -117q-9 -87 -123 -213l-64 59q80 90 80 201z" />
    <glyph glyph-name="perthousand" unicode="&#x2030;" horiz-adv-x="2757" 
d="M542 6q284 774 478 1439h215q-325 -851 -487 -1451zM1765 484q2 -33 2 -62q0 -262 -119 -344q-111 -77 -278 -77q-31 0 -63 3q-210 17 -270 203q-31 92 -31 190q0 97 31 200q60 203 382 203h5q326 -2 341 -316zM1398 604h-3q-139 0 -163 -100q-12 -51 -12 -102t12 -101
q23 -102 116 -112q18 -2 35 -2q68 0 112 32q50 36 50 186v26q-5 172 -147 173zM756 1143v-49q0 -274 -124 -363q-109 -79 -262 -79q-37 0 -76 5q-203 23 -263 209q-31 92 -31 190q0 97 31 200q60 203 382 203h5q326 -2 338 -316zM392 1263h-3q-139 0 -163 -100
q-12 -51 -12 -102t12 -101q23 -102 116 -112q18 -2 35 -2q68 0 112 32q50 36 50 186v26q-5 172 -147 173zM2605 484q2 -33 2 -62q0 -262 -119 -344q-111 -77 -278 -77q-31 0 -63 3q-210 17 -270 203q-31 92 -31 190q0 97 31 200q60 203 382 203h5q326 -2 341 -316zM2238 604
h-3q-139 0 -163 -100q-12 -51 -12 -102t12 -101q23 -102 116 -112q18 -2 35 -2q68 0 112 32q50 36 50 186v26q-5 172 -147 173z" />
    <glyph glyph-name="Acircumflex" unicode="&#xc2;" horiz-adv-x="1080" 
d="M606 1450q138 -715 324 -1417l-273 -21l-84 383l-283 -16l-52 -354l-238 -13q126 773 217 1426zM568 602l-114 654l-62 -15l-98 -639h274zM491 1991q88 -148 227 -305l-116 -54l-183 181l-181 -187l-126 51q115 159 226 314h153z" />
    <glyph glyph-name="Ecircumflex" unicode="&#xca;" horiz-adv-x="852" 
d="M664 1519l10 -275q-43 1 -103 1q-135 0 -354 -6l4 -371q188 0 364 5l-4 -231q-63 4 -126 4q-94 0 -188 -9v-335h431l4 -265q-236 5 -688 5q3 171 3 368q0 472 -17 1090zM427 1991q88 -148 227 -305l-116 -54l-183 181l-181 -187l-126 51q115 159 226 314h153z" />
    <glyph glyph-name="Aacute" unicode="&#xc1;" horiz-adv-x="1080" 
d="M606 1450q138 -715 324 -1417l-273 -21l-84 383l-283 -16l-52 -354l-238 -13q126 773 217 1426zM568 602l-114 654l-62 -15l-98 -639h274zM358 1696l236 196l89 -155l-262 -130z" />
    <glyph glyph-name="Edieresis" unicode="&#xcb;" horiz-adv-x="852" 
d="M664 1519l10 -275q-43 1 -103 1q-135 0 -354 -6l4 -371q188 0 364 5l-4 -231q-63 4 -126 4q-94 0 -188 -9v-335h431l4 -265q-236 5 -688 5q3 171 3 368q0 472 -17 1090zM254 1864l-8 -244l-179 17l-13 230zM648 1875l-6 -236l-178 -7l-1 238z" />
    <glyph glyph-name="Egrave" unicode="&#xc8;" horiz-adv-x="852" 
d="M664 1519l10 -275q-43 1 -103 1q-135 0 -354 -6l4 -371q188 0 364 5l-4 -231q-63 4 -126 4q-94 0 -188 -9v-335h431l4 -265q-236 5 -688 5q3 171 3 368q0 472 -17 1090zM395 1607l-262 130l89 155l236 -196z" />
    <glyph glyph-name="Iacute" unicode="&#xcd;" horiz-adv-x="501" 
d="M266 1422q-24 -379 -24 -958q0 -248 4 -533l-221 6v76q0 522 -25 1392zM26 1696l236 196l89 -155l-262 -130z" />
    <glyph glyph-name="Icircumflex" unicode="&#xce;" horiz-adv-x="756" 
d="M437 1422q-24 -379 -24 -958q0 -248 4 -533l-221 6v76q0 522 -25 1392zM379 1991q88 -148 227 -305l-116 -54l-183 181l-181 -187l-126 51q115 159 226 314h153z" />
    <glyph glyph-name="Idieresis" unicode="&#xcf;" horiz-adv-x="744" 
d="M430 1422q-24 -379 -24 -958q0 -248 4 -533l-221 6v76q0 522 -25 1392zM200 1864l-8 -244l-179 17l-13 230zM594 1875l-6 -236l-178 -7l-1 238z" />
    <glyph glyph-name="Igrave" unicode="&#xcc;" horiz-adv-x="501" 
d="M351 1422q-24 -379 -24 -958q0 -248 4 -533l-221 6v76q0 522 -25 1392zM262 1607l-262 130l89 155l236 -196z" />
    <glyph glyph-name="Oacute" unicode="&#xd3;" 
d="M859 784q1 -52 1 -100q0 -539 -133 -647q-117 -94 -294 -94q-44 0 -92 6q-241 29 -308 342q-33 156 -33 336q0 179 33 383q67 404 436 404h4q373 -2 386 -630zM456 1154h-2q-182 0 -214 -273q-17 -137 -17 -258t17 -227q32 -211 150 -231q23 -5 45 -5q87 0 145 66
q66 75 66 441v63q-6 422 -190 424zM323 1696l236 196l89 -155l-262 -130z" />
    <glyph glyph-name="Ocircumflex" unicode="&#xd4;" 
d="M859 784q1 -52 1 -100q0 -539 -133 -647q-117 -94 -294 -94q-44 0 -92 6q-241 29 -308 342q-33 156 -33 336q0 179 33 383q67 404 436 404h4q373 -2 386 -630zM456 1154h-2q-182 0 -214 -273q-17 -137 -17 -258t17 -227q32 -211 150 -231q23 -5 45 -5q87 0 145 66
q66 75 66 441v63q-6 422 -190 424zM505 1991q88 -148 227 -305l-116 -54l-183 181l-181 -187l-126 51q115 159 226 314h153z" />
    <glyph glyph-name="Ograve" unicode="&#xd2;" 
d="M859 784q1 -52 1 -100q0 -539 -133 -647q-117 -94 -294 -94q-44 0 -92 6q-241 29 -308 342q-33 156 -33 336q0 179 33 383q67 404 436 404h4q373 -2 386 -630zM456 1154h-2q-182 0 -214 -273q-17 -137 -17 -258t17 -227q32 -211 150 -231q23 -5 45 -5q87 0 145 66
q66 75 66 441v63q-6 422 -190 424zM474 1607l-262 130l89 155l236 -196z" />
    <glyph glyph-name="Uacute" unicode="&#xda;" horiz-adv-x="1049" 
d="M0 1425l246 22q-13 -753 -13 -880t44.5 -210.5t133.5 -94.5q11 -1 22 -1q74 0 124 62q58 72 67 183q2 32 2 130q0 229 -14 816h287q-17 -655 -26 -911t-64 -368t-177 -153q-75 -25 -168 -25q-61 0 -129 11q-174 26 -248 197.5t-76 321t-11 900.5zM342 1696l236 196
l89 -155l-262 -130z" />
    <glyph glyph-name="Ucircumflex" unicode="&#xdb;" horiz-adv-x="1049" 
d="M0 1425l246 22q-13 -753 -13 -880t44.5 -210.5t133.5 -94.5q11 -1 22 -1q74 0 124 62q58 72 67 183q2 32 2 130q0 229 -14 816h287q-17 -655 -26 -911t-64 -368t-177 -153q-75 -25 -168 -25q-61 0 -129 11q-174 26 -248 197.5t-76 321t-11 900.5zM525 1991
q88 -148 227 -305l-116 -54l-183 181l-181 -187l-126 51q115 159 226 314h153z" />
    <glyph glyph-name="Ugrave" unicode="&#xd9;" horiz-adv-x="1049" 
d="M0 1425l246 22q-13 -753 -13 -880t44.5 -210.5t133.5 -94.5q11 -1 22 -1q74 0 124 62q58 72 67 183q2 32 2 130q0 229 -14 816h287q-17 -655 -26 -911t-64 -368t-177 -153q-75 -25 -168 -25q-61 0 -129 11q-174 26 -248 197.5t-76 321t-11 900.5zM494 1607l-262 130
l89 155l236 -196z" />
    <glyph glyph-name="circumflex" unicode="&#x2c6;" horiz-adv-x="756" 
d="M379 1561q88 -148 227 -305l-116 -54l-183 181l-181 -187l-126 51q115 159 226 314h153z" />
    <glyph glyph-name="tilde" unicode="&#x2dc;" horiz-adv-x="702" 
d="M132 1205h-25q-19 0 -48 -2l-58 -4q-1 15 -1 30q0 94 39 155q45 70 115 70q35 0 66 -16t57.5 -34t49.5 -35.5t46 -17.5q56 0 56 69q0 15 -2 32q21 -4 21 -6q0 -1 -3 -1q17 0 43 3.5t59 6.5q5 -37 5 -70q0 -71 -25 -117q-38 -67 -125 -67q-34 0 -62 13.5t-54 31
t-49.5 32.5t-47.5 15q-58 0 -58 -73q0 -7 1 -15z" />
    <glyph glyph-name="cedilla" unicode="&#xb8;" horiz-adv-x="542" 
d="M208 11q-2 -10 -3 -23q-2 -27 -7 -76q98 -5 146 -42t48 -97q0 -81 -65.5 -126t-166.5 -45q-42 0 -85.5 9t-74.5 22q2 13 6 33q4 16 8 38t6 39q22 -12 65.5 -21.5t82.5 -9.5q34 0 61 13t27 37q0 29 -42 44q-29 10 -78 10q-23 0 -51 -2q3 18 11 51q6 29 13.5 66t12.5 79z
" />
    <glyph glyph-name="Scaron" unicode="&#x160;" horiz-adv-x="1005" 
d="M351 1627q-88 148 -227 305l116 54l183 -181l181 187l126 -51q-116 -159 -226 -314h-153zM0 507l234 59q0 -219 72 -269q58 -40 122 -40q16 0 33 3q82 12 116 68q21 36 21 92q0 31 -6 69q-19 104 -139.5 157.5t-224 107.5t-146.5 158q-34 81 -34 176q0 28 3 57
q12 128 128 231q109 97 257 97h19q159 -7 259.5 -108t109.5 -378l-218 -53q-14 227 -81 272q-43 28 -88 28q-26 0 -53 -10q-73 -26 -100 -100q-10 -27 -10 -54q0 -46 31 -90q47 -69 268.5 -156.5t258.5 -215.5q23 -78 23 -155q0 -48 -9 -96q-24 -123 -85 -207.5t-187 -127.5
q-80 -28 -160 -28q-47 0 -93 9q-127 25 -220 134t-101 370z" />
    <glyph glyph-name="scaron" unicode="&#x161;" horiz-adv-x="901" 
d="M299 1197q-88 148 -227 305l116 54l183 -181l181 187l126 -51q-116 -159 -226 -314h-153zM0 297l215 30q14 -140 96 -155q29 -5 55 -5q43 0 74 16q47 26 61 101q1 6 1 12q0 67 -138 124q-151 62 -243 138t-96 199q-1 9 -1 19q0 109 50 169q54 64 146 104q74 32 168 32
q22 0 44 -2q121 -9 199.5 -76t115.5 -286l-200 -18q-24 137 -93 163q-47 17 -83 17q-18 0 -33 -4q-47 -13 -72 -68q-12 -27 -12 -54q0 -26 12 -51q25 -51 199.5 -116.5t225.5 -134.5t59 -162q1 -11 1 -21q0 -82 -57 -157q-64 -84 -206 -121q-61 -16 -123 -16q-84 0 -169 29
q-150 50 -196 294z" />
    <glyph glyph-name="Zcaron" unicode="&#x17d;" horiz-adv-x="911" 
d="M305 1627q-88 148 -227 305l116 54l183 -181l181 187l126 -51q-116 -159 -226 -314h-153zM22 1170l-9 287q619 -30 718 -30l30 -273l-515 -912q312 4 506 13v-276q-350 26 -739 30l-13 268l519 897z" />
    <glyph glyph-name="zcaron" unicode="&#x17e;" horiz-adv-x="800" 
d="M249 1197q-88 148 -227 305l116 54l183 -181l181 187l126 -51q-116 -159 -226 -314h-153zM628 1007l4 -257l-413 -596q199 19 422 33l9 -253q-129 8 -325 8q-136 0 -303 -4l-9 231l379 616q-181 -9 -392 -40v257z" />
    <glyph glyph-name="brokenbar" unicode="&#xa6;" horiz-adv-x="345" 
d="M0 1625l184 -10l5 -801l-187 -7zM195 -229l-190 10l-2 810l187 6z" />
    <glyph glyph-name="Eth" unicode="&#xd0;" horiz-adv-x="1125" 
d="M627 337.5q95 124.5 107 293.5q3 49 3 96q0 113 -20 210q-28 136 -141 203q-105 62 -217 62h-17v-407h180l-5 -212h-170v-370q185 0 280 124.5zM125 -42l-5 613l-120 4v220l130 4l-5 657q117 5 210 5q152 0 239 -14q138 -23 237.5 -143t139.5 -312q24 -117 24 -253
q0 -88 -10 -184q-26 -245 -199 -437q-149 -165 -514 -165q-60 0 -127 5z" />
    <glyph glyph-name="eth" unicode="&#xf0;" horiz-adv-x="1053" 
d="M529 469l-5 238q-12 109 -72 168q-33 31 -68 31q-30 0 -62 -24q-70 -51 -94 -177q-14 -76 -14 -141q0 -44 6 -82q16 -96 52 -148.5t88 -52.5q51 0 90.5 50.5t78.5 137.5zM498 1016l3 503h240l-9 -227h171l-8 -166l-168 -7l-5 -1054h-184v140q-106 -145 -213 -153
q-14 -1 -28 -1q-89 0 -147 47q-67 54 -105.5 163t-43.5 239q-1 20 -1 42q0 113 22 246q26 159 99.5 245t191.5 96q9 1 17 1q106 0 168 -114z" />
    <glyph glyph-name="Yacute" unicode="&#xdd;" horiz-adv-x="1153" 
d="M330 52l13 657l-343 793l243 13l222 -587l270 583l268 -31l-429 -774l-26 -654h-218zM395 1696l236 196l89 -155l-262 -130z" />
    <glyph glyph-name="yacute" unicode="&#xfd;" horiz-adv-x="959" 
d="M273 53q-122 435 -273 935l241 9q63 -370 144 -725l147 725l277 -5q-222 -593 -446 -1374l-201 67zM297 1266l236 196l89 -155l-262 -130z" />
    <glyph glyph-name="Thorn" unicode="&#xde;" horiz-adv-x="989" 
d="M208 490q19 -1 37 -1q200 0 278 82q70 73 70 166q0 20 -3 41q-18 119 -127 178q-83 44 -191 44q-33 0 -68 -4zM7 31l-7 1429l214 -20l-3 -226q132 -12 290.5 -38t238 -134.5t96.5 -248.5q3 -33 3 -64q0 -106 -41 -203q-55 -127 -203 -188q-136 -57 -315 -57q-17 0 -35 1
l3 -244z" />
    <glyph glyph-name="thorn" unicode="&#xfe;" horiz-adv-x="881" 
d="M189 724l1 -222q17 -113 89 -173q41 -36 85 -36q33 0 67 19q81 44 90 171q4 59 4 113q0 60 -5 114q-10 100 -51 155.5t-98 55.5t-99 -52.5t-83 -144.5zM210 215l5 -444h-210l-5 1654h184l2 -441q104 145 211 154q14 1 28 1q88 0 148 -47q68 -55 108 -163.5t48 -238.5
q2 -32 2 -67q0 -103 -18 -221q-24 -159 -95.5 -245t-189.5 -96q-7 -1 -14 -1q-110 0 -204 155z" />
    <glyph glyph-name="multiply" unicode="&#xd7;" horiz-adv-x="937" 
d="M268 690l-268 400l167 100l227 -350l226 350l167 -100l-268 -400l268 -400l-167 -100l-226 350l-227 -350l-167 100z" />
    <glyph glyph-name="Euro" unicode="&#x20ac;" horiz-adv-x="1176" 
d="M871 0q-98 -89 -254 -89q-70 0 -152 18q-265 58 -285 533l-180 6v173l187 3v100h-174v159h187q63 491 416 491h10q361 -7 400 -381l-246 -71q-13 200 -135 226q-21 4 -40 4q-93 0 -141 -104q-58 -126 -58 -197h271v-153l-277 4l-7 -84l303 -10l-6 -162h-297q-1 -4 -1 -10
q0 -36 34 -147q37 -125 186 -125h7q155 3 184 264l210 -42q0 -277 -142 -406z" />
  </font>
</defs>
</svg>
